<svg width="30" height="22" viewBox="0 0 30 22" fill="none" xmlns="http://www.w3.org/2000/svg">
<path d="M24.8836 9.73493C26.4913 9.73493 27.7945 8.41428 27.7945 6.78519C27.7945 5.15609 26.4913 3.83545 24.8836 3.83545C23.2759 3.83545 21.9727 5.15609 21.9727 6.78519C21.9727 8.41428 23.2759 9.73493 24.8836 9.73493Z" fill="#BDDDCC"/>
<path d="M28.8769 12.4236C27.5735 12.1337 26.2299 11.9883 24.8852 11.9883C24.3641 11.9883 23.8426 12.0107 23.3233 12.0543C23.0661 12.076 22.8862 12.3095 22.9004 12.5705C22.9058 12.6727 22.9058 12.7744 22.8994 12.8762C22.7822 14.4709 22.665 16.0952 22.5482 17.7517C22.4869 18.5963 22.1862 19.4189 21.7285 20.1307C21.8874 20.204 22.0502 20.2589 22.2147 20.2867C23.2627 20.4404 24.3417 20.5022 25.4135 20.4733C28.7123 20.26 29.8226 16.7154 29.9986 13.9385C30.0374 13.3137 29.4928 12.5748 28.8769 12.4236Z" fill="#BDDDCC"/>
<path d="M5.11601 9.73493C6.72367 9.73493 8.02694 8.41428 8.02694 6.78519C8.02694 5.15609 6.72367 3.83545 5.11601 3.83545C3.50835 3.83545 2.20508 5.15609 2.20508 6.78519C2.20508 8.41428 3.50835 9.73493 5.11601 9.73493Z" fill="#BDDDCC"/>
<path d="M0.0020981 13.9444C0.11751 15.528 0.24895 16.9342 1.17224 18.2716C1.96089 19.4136 3.17663 20.3864 4.59505 20.4745C5.65014 20.5048 6.73052 20.4424 7.79095 20.2864C7.95409 20.2583 8.1151 20.2038 8.27254 20.1312C7.81446 19.4194 7.51382 18.5972 7.45255 17.7532C7.33536 16.0957 7.21816 14.4714 7.10168 12.8821C7.09527 12.7782 7.09492 12.6742 7.10062 12.5703C7.11486 12.3093 6.93498 12.0761 6.6778 12.0545C6.16058 12.0108 5.64087 11.9888 5.12117 11.9888C3.77327 11.9888 2.42431 12.1346 1.11276 12.4262C0.506845 12.575 -0.0381534 13.3138 0.0020981 13.9444Z" fill="#BDDDCC"/>
<path d="M14.9997 7.89745C17.0156 7.89745 18.6497 6.24147 18.6497 4.19872C18.6497 2.15598 17.0156 0.5 14.9997 0.5C12.9838 0.5 11.3496 2.15598 11.3496 4.19872C11.3496 6.24147 12.9838 7.89745 14.9997 7.89745Z" fill="white"/>
<path d="M20.2567 10.6515C18.5409 10.2696 16.773 10.0786 15.0037 10.0786C13.2316 10.0786 11.458 10.2703 9.73397 10.654C8.85628 10.8691 8.09969 11.8971 8.1574 12.8078C8.27388 14.3928 8.39071 16.0182 8.5079 17.6753C8.63008 19.3566 9.99543 20.9914 11.489 21.2441C13.8133 21.5856 16.1817 21.5856 18.5174 21.2434C20.0092 20.9878 21.3713 19.3548 21.4935 17.6746C21.6107 16.0182 21.7275 14.3928 21.8443 12.8024C21.9024 11.8968 21.1455 10.8691 20.2567 10.6515Z" fill="white"/>
</svg>
