<svg xmlns="http://www.w3.org/2000/svg" xmlns:xlink="http://www.w3.org/1999/xlink" width="224" height="2864"><style>.v{stroke-linejoin:round}.w{stroke-linecap:round}.x{stroke-width:1.5}.y{fill:none}.z{stroke-width:1}.AA{fill:#fff}.AB{stroke:#fff}.AC{stroke:#263238}.AD{stroke:#2f8d46}.AE{stroke:#979797}.AF{fill:#979797}.AG{fill:#263238}.AH{stroke:#707070}.AI{stroke-width:1.2}.AJ{fill:#2f8d46}.AK{fill:#0f2b3c}.AL{stroke:#39914e}.AM{fill:transparent}.AN{stroke:#a5a5a5}.AO{clip-path:url(#D)}.AP{fill:#39914e}.AQ{stroke:#787676}.AR{stroke:#0f2b3c}.AS{clip-path:url(#G)}.AT{stroke-width:1.8}.AU{stroke-width:1.6}.AV{clip-path:url(#k)}.AW{clip-path:url(#l)}.AX{stroke:#048c25}.AY{stroke-width:.5}.AZ{clip-path:url(#AA)}.Aa{clip-path:url(#AB)}.Ab{clip-path:url(#AI)}.Ac{stroke-width:.4}.Ad{clip-path:url(#B)}.Ae{clip-path:url(#F)}.Af{clip-path:url(#Q)}.Ag{clip-path:url(#Y)}.Ah{clip-path:url(#g)}.Ai{fill:#787676}.Aj{clip-path:url(#u)}.Ak{clip-path:url(#AH)}.Al{clip-path:url(#I)}.Am{clip-path:url(#j)}.An{fill:transparent}.Ao{clip-path:url(#m)}.Ap{fill-rule:evenodd}</style><defs><path id="Aa" d="M51.818 26.848 45 20.031 47.031 18l4.787 4.787L56.6 18l2.031 2.031z"/><path id="Bz" d="M16.052 2726.604h-12v1.6h12zm0 4.6h-12v1.6h12zm0 4.594h-12v1.6h12z"/><path id="By" d="M8.25 2648.25h4.25m-4.25 4.25h4.25m-4.25 4.25h4.25"/><path id="Bx" d="M4.416 1768.088h15.168m-10.368-4v3.888"/><path id="Bw" d="M12 1692v.01m-4-.01v.01m8-.01v.01"/><path id="Bv" d="M5 1532h14m-14 0 4 4m-4-4 4-4"/><path id="Bu" d="m8.022 1444.043 7.957 7.957-7.957 7.957"/><path id="Bt" d="m6.226 897.5 5.8 5.8 5.8-5.8"/><path id="Bs" d="M52 565v-2m5 4 1.4-1.4m.6 6.4h2m-4 5 1.4 1.4m-6.4.6v2m-5-4-1.4 1.4m.4-6.4h-2m3-5-1.4-1.4"/><path id="Br" d="m7 648-4 4 4 4m10-8 4 4-4 4m-3-12-4 16"/><path id="Bq" d="M3.05 331a9 9 0 1 1 .5 4m-.5 5v-5h5"/><path id="Bp" d="M15 364v4m-6-4v4m-4 3h14m-8 4h1m0 0v2"/><path id="Bo" d="M13019.088 6045.879a1.08 1.08 0 0 0-1.081 1.081v3.6a1.08 1.08 0 1 0 2.162 0v-3.6a1.08 1.08 0 0 0-1.081-1.081z"/><path id="Bn" d="M15 2859v-12.444a1.585 1.585 0 0 0-.439-1.1A1.473 1.473 0 0 0 13.5 2845h-3a1.473 1.473 0 0 0-1.061.456c-.283.296-.44.69-.439 1.1V2859"/><path id="Bm" d="M20.333 2812a8.333 8.333 0 1 1-.634-3.189 8.33 8.33 0 0 1 .634 3.189z"/><path id="Bl" d="M19.952 2726.604h-1.6v1.6h1.6z"/><path id="Bk" d="m20.891 2570.392-13.761-8.135a1.867 1.867 0 0 0-2.83 1.614v16.267a1.875 1.875 0 0 0 2.83 1.614l13.76-8.131a1.874 1.874 0 0 0 0-3.23z"/><path id="Bj" d="M134.334 2485.006c.08.011.156.042.22.092l7.27 5.679a.453.453 0 0 1 0 .717l-7.27 5.679a.456.456 0 0 1-.358.091.45.45 0 0 1-.306-.206.445.445 0 0 1-.07-.24v-2.279a17.387 17.387 0 0 0-3.763.269 14.91 14.91 0 0 0-7.3 3.259.454.454 0 0 1-.734-.482c1.9-5.845 7.672-8.63 11.792-9.741v-2.386a.45.45 0 0 1 .039-.188.46.46 0 0 1 .114-.155.45.45 0 0 1 .167-.094.46.46 0 0 1 .192-.016zm.393 1.377v1.8a.455.455 0 0 1-.341.439c-3.589.908-8.6 3.217-10.854 7.759a16.67 16.67 0 0 1 6.366-2.47 20.2 20.2 0 0 1 4.395-.277.455.455 0 0 1 .435.458v1.8l6.076-4.75z"/><path id="Bi" d="M96.461 2448.537a.57.57 0 0 0-.811 0l-6.114 6.114a.573.573 0 1 0 .811.811l6.114-6.114a.573.573 0 0 0 0-.811z"/><path id="Bh" d="M15.276 2452.54a1.736 1.736 0 1 0 0 3.471 1.736 1.736 0 0 0 0-3.471zm0 2.325a.59.59 0 1 1 .589-.589.59.59 0 0 1-.589.59z"/><path id="Bg" d="M16.461 2448.537a.57.57 0 0 0-.406-.168.57.57 0 0 0-.406.168l-6.114 6.114a.573.573 0 1 0 .811.811l6.114-6.114a.573.573 0 0 0 0-.811z"/><path id="Bf" d="M10.723 2451.459a1.737 1.737 0 1 0-.665-3.34 1.74 1.74 0 0 0 .665 3.34zm0-2.325a.59.59 0 1 1-.589.589.59.59 0 0 1 .589-.593z"/><path id="Be" d="M14.675 2408.335h3.523v3.523"/><path id="Bd" d="m18.198 2408.335-5.578 5.578-2.94-2.936-4.4 4.404"/><path id="Bc" d="M49.01 2296.494h-2.428a.329.329 0 0 1-.332-.332v-5.391a.329.329 0 0 1 .332-.332h2.428a.8.8 0 0 1 .8.8v4.454a.8.8 0 0 1-.8.801zm-2.1-.664h2.1a.14.14 0 0 0 .136-.136v-4.455a.14.14 0 0 0-.136-.136h-2.1z"/><path id="Bb" d="M52 2301.071a1.78 1.78 0 0 1-1.471-.767 1.136 1.136 0 0 0-1.405-.382 1.8 1.8 0 0 1-2.551-1.471 1.136 1.136 0 0 0-1.03-1.03 1.8 1.8 0 0 1-1.471-2.548 1.14 1.14 0 0 0-.375-1.4 1.8 1.8 0 0 1 0-2.946 1.14 1.14 0 0 0 .382-1.408 1.8 1.8 0 0 1 1.471-2.548 1.136 1.136 0 0 0 1.03-1.03 1.8 1.8 0 0 1 2.55-1.469 1.14 1.14 0 0 0 1.4-.375 1.78 1.78 0 0 1 1.47-.768 1.776 1.776 0 0 1 1.471.767c.314.45.906.611 1.405.382a1.8 1.8 0 0 1 2.554 1.472c.049.547.483.981 1.03 1.03a1.8 1.8 0 0 1 1.47 2.547 1.14 1.14 0 0 0 .375 1.4 1.8 1.8 0 0 1 0 2.943c-.452.316-.614.91-.385 1.412a1.8 1.8 0 0 1-1.471 2.548 1.136 1.136 0 0 0-1.03 1.03 1.8 1.8 0 0 1-2.549 1.469 1.14 1.14 0 0 0-1.4.375 1.78 1.78 0 0 1-1.47.767zm-2.4-1.91a1.796 1.796 0 0 1 1.471.761 1.134 1.134 0 0 0 1.856 0 1.8 1.8 0 0 1 2.229-.6 1.136 1.136 0 0 0 1.611-.93 1.8 1.8 0 0 1 1.631-1.631 1.136 1.136 0 0 0 .93-1.608 1.8 1.8 0 0 1 .595-2.229l.2.269-.193-.272a1.134 1.134 0 0 0 0-1.853 1.8 1.8 0 0 1-.6-2.229 1.136 1.136 0 0 0-.93-1.611 1.8 1.8 0 0 1-1.631-1.631 1.132 1.132 0 0 0-1.608-.93 1.8 1.8 0 0 1-2.232-.592 1.127 1.127 0 0 0-.93-.482 1.12 1.12 0 0 0-.927.482 1.8 1.8 0 0 1-2.229.6 1.136 1.136 0 0 0-1.611.93 1.8 1.8 0 0 1-1.631 1.631 1.132 1.132 0 0 0-.93 1.608 1.8 1.8 0 0 1-.595 2.229 1.134 1.134 0 0 0 0 1.856 1.8 1.8 0 0 1 .6 2.229 1.136 1.136 0 0 0 .93 1.611 1.8 1.8 0 0 1 1.631 1.631 1.132 1.132 0 0 0 1.608.93 1.8 1.8 0 0 1 .752-.17z"/><path id="Ba" d="M10.509 2296.388a1.33 1.33 0 0 1-.834-.286 1.42 1.42 0 0 1-.508-.854 1.11 1.11 0 0 1-.02-.216v-3.892c0-.068.021-.134.06-.189l1.146-1.661a4.98 4.98 0 0 0 .817-3.378.333.333 0 0 1 .166-.332c.216-.113.456-.172.7-.173a1.614 1.614 0 0 1 1.488 1.173 3.22 3.22 0 0 1 .213 1.328 2.63 2.63 0 0 1-.163.721.7.7 0 0 1-.053.166 2.9 2.9 0 0 0-.113.452h3.577c.625.008 1.13.511 1.139 1.136a1.14 1.14 0 0 1-.751 1.073 1.153 1.153 0 0 1-.438 1.565 1.16 1.16 0 0 1 .179.618 1.14 1.14 0 0 1-.332.807c-.138.14-.31.24-.5.292a1.09 1.09 0 0 1 .11.482 1.11 1.11 0 0 1-.332.81c-.211.219-.505.34-.81.332zm-.714-5.145v3.79a.48.48 0 0 0 0 .1.757.757 0 0 0 .266.448.665.665 0 0 0 .435.143l4.73-.027a.44.44 0 0 0 .332-.126c.1-.09.154-.22.149-.355a.48.48 0 0 0-.332-.452.335.335 0 1 1 .094-.664h.5a.477.477 0 0 0 .455-.476.48.48 0 0 0-.455-.477.332.332 0 0 1 0-.664h.405a.45.45 0 0 0 .332-.14.47.47 0 0 0 .143-.332.49.49 0 0 0-.5-.492.335.335 0 0 1-.056-.664h.691a.474.474 0 0 0 .475-.478.49.49 0 0 0-.475-.468h-3.94a.332.332 0 0 1-.332-.3 2.51 2.51 0 0 1 .156-1.02l.056-.173c.063-.168.105-.343.126-.521a2.57 2.57 0 0 0-.156-1.06c-.332-.764-.741-.764-.877-.764a.77.77 0 0 0-.183.02 5.645 5.645 0 0 1-.95 3.584z"/><path id="BZ" d="M9.01 2296.494H6.582a.329.329 0 0 1-.332-.332v-5.391a.329.329 0 0 1 .332-.332H9.01a.8.8 0 0 1 .8.8v4.454a.8.8 0 0 1-.8.801zm-2.1-.664h2.1a.14.14 0 0 0 .136-.136v-4.455a.14.14 0 0 0-.136-.136h-2.1z"/><path id="BY" d="M12 2301.071a1.78 1.78 0 0 1-1.471-.767 1.136 1.136 0 0 0-1.405-.382 1.8 1.8 0 0 1-2.551-1.471 1.136 1.136 0 0 0-1.03-1.03 1.8 1.8 0 0 1-1.471-2.548 1.14 1.14 0 0 0-.375-1.4 1.8 1.8 0 0 1 0-2.946 1.14 1.14 0 0 0 .382-1.408 1.8 1.8 0 0 1 1.471-2.548 1.136 1.136 0 0 0 1.03-1.03 1.8 1.8 0 0 1 2.55-1.469 1.14 1.14 0 0 0 1.4-.375 1.78 1.78 0 0 1 1.47-.768 1.776 1.776 0 0 1 1.471.767c.314.45.906.611 1.405.382a1.8 1.8 0 0 1 2.554 1.472c.049.547.483.981 1.03 1.03a1.8 1.8 0 0 1 1.47 2.547 1.14 1.14 0 0 0 .375 1.4 1.8 1.8 0 0 1 0 2.943c-.452.316-.614.91-.385 1.412a1.8 1.8 0 0 1-1.471 2.548 1.136 1.136 0 0 0-1.03 1.03 1.8 1.8 0 0 1-2.549 1.469 1.14 1.14 0 0 0-1.4.375 1.78 1.78 0 0 1-1.47.767zm-2.4-1.91a1.796 1.796 0 0 1 1.471.761 1.134 1.134 0 0 0 1.857 0 1.8 1.8 0 0 1 2.229-.6 1.136 1.136 0 0 0 1.611-.93 1.8 1.8 0 0 1 1.631-1.631 1.136 1.136 0 0 0 .93-1.608 1.8 1.8 0 0 1 .595-2.229l.2.269-.193-.272a1.134 1.134 0 0 0 0-1.853 1.8 1.8 0 0 1-.6-2.229 1.136 1.136 0 0 0-.93-1.611 1.8 1.8 0 0 1-1.631-1.631 1.132 1.132 0 0 0-1.608-.93 1.8 1.8 0 0 1-2.232-.592 1.127 1.127 0 0 0-.93-.482 1.12 1.12 0 0 0-.927.482 1.8 1.8 0 0 1-2.229.6 1.136 1.136 0 0 0-1.611.93 1.8 1.8 0 0 1-1.631 1.631 1.132 1.132 0 0 0-.93 1.608 1.8 1.8 0 0 1-.595 2.229 1.134 1.134 0 0 0 0 1.856 1.8 1.8 0 0 1 .6 2.229 1.136 1.136 0 0 0 .93 1.611 1.8 1.8 0 0 1 1.631 1.631 1.132 1.132 0 0 0 1.608.93 1.8 1.8 0 0 1 .752-.17z"/><path id="BX" d="M18.865 2331.096a7.404 7.404 0 0 0-1.767-2.455l-.62-.569a.173.173 0 0 0-.277.07l-.277.8a4.53 4.53 0 0 1-.94 1.509c-.023.025-.054.04-.087.043s-.067-.009-.092-.032-.045-.062-.043-.1a8.23 8.23 0 0 0-1.145-4.306 7.6 7.6 0 0 0-2.867-3.042l-.88-.518a.172.172 0 0 0-.174.002.17.17 0 0 0-.082.154l.047 1.023a4.65 4.65 0 0 1-.241 1.831 6.08 6.08 0 0 1-1 1.737 6.3 6.3 0 0 1-1.012.983 7.51 7.51 0 0 0-2.138 2.59 7.41 7.41 0 0 0-.773 3.281 7.337 7.337 0 0 0 .59 2.9 7.51 7.51 0 0 0 6.912 4.54 7.53 7.53 0 0 0 2.918-.582 7.5 7.5 0 0 0 3.994-3.956 7.4 7.4 0 0 0-.047-5.9zm-2.581 7.232a6.1 6.1 0 0 1-8.569 0 5.94 5.94 0 0 1-1.149-6.872 6.03 6.03 0 0 1 1.722-2.087 7.45 7.45 0 0 0 1.249-1.211 7.55 7.55 0 0 0 1.241-2.153 5.14 5.14 0 0 0 .258-.991 6.46 6.46 0 0 1 1.3 1.714 6.815 6.815 0 0 1 .976 3.532c-.029.449.136.89.453 1.21a1.58 1.58 0 0 0 1.205.465 1.56 1.56 0 0 0 1.087-.52 7 7 0 0 0 .733-.972 5.94 5.94 0 0 1-.512 7.884z"/><path id="BW" d="m12 2366 1.855 3.756 4.145.606-3 2.923.708 4.128-3.708-1.95-3.708 1.95.708-4.128-3-2.923 4.146-.606z"/><path id="BV" d="m16.715 3.297 1.353-.49a.25.25 0 0 1 .171.472l-1.355.493a.253.253 0 0 1-.17-.476z"/><path id="BU" d="m16.886 9.191 1.359.501a.25.25 0 0 1-.171.472l-1.359-.488a.257.257 0 0 1 .171-.485z"/><path id="BT" d="M16.93 6.628a.25.25 0 0 1 .251-.251h1.441a.25.25 0 0 1 .236.382.25.25 0 0 1-.236.118h-1.441a.25.25 0 0 1-.251-.249z"/><path id="BS" d="M1.391 3.999h2.348a4.13 4.13 0 0 0-.29 1.806 4.23 4.23 0 0 0 .279 1.794h-2.6C.34 7.499 0 6.949 0 5.807c0-1.268.417-1.808 1.391-1.808z"/><path id="BR" d="M4.253 8.11h.139l-.917 1.062h-2.1V8.11h2.878z"/><path id="BQ" d="M5.525 3.947a9.01 9.01 0 0 0 4.69-2.214 13.9 13.9 0 0 0-.57 4.316 14.43 14.43 0 0 0 .5 4.1 9.28 9.28 0 0 0-4.314-2.362.138.138 0 0 0-.112-.062c-.406 0-.612-.645-.612-1.92-.011-1.065.135-1.687.418-1.858z"/><path id="BP" d="M3.723 5.805A2.9 2.9 0 0 1 4.076 4h.547a4.16 4.16 0 0 0 .5-.021 4.053 4.053 0 0 0-.3 1.824 3.91 3.91 0 0 0 .324 1.865.246.246 0 0 0-.187-.073h-.913a3.15 3.15 0 0 1-.324-1.79z"/><path id="BO" d="M11.905 6.042c0-1.442-.709-2.713-1.519-2.713a.31.31 0 0 0-.043 0C10.676 1.249 11.424 0 12.443 0c1.473 0 3.124 2.586 3.124 6.042s-1.649 6.042-3.124 6.042a1.32 1.32 0 0 1-.958-.445l-.182-.212-.135-.167a6.656 6.656 0 0 1-.832-2.507.28.28 0 0 0 .043 0c.814 0 1.525-1.265 1.525-2.711z"/><path id="BN" d="M10.285 3.731a.193.193 0 0 1 .105-.128c.574 0 1.245 1.067 1.245 2.44s-.675 2.439-1.245 2.439a.26.26 0 0 1-.1-.139 18.15 18.15 0 0 1-.14-2.3 18.12 18.12 0 0 1 .135-2.312z"/><path id="BM" d="M13255.576 6419.712h-.037l-.252.249a10.03 10.03 0 0 1 3.833 1.915 13.555 13.555 0 0 0-4.665-1.417 12.81 12.81 0 0 0-3.084 0h-.249a11.11 11.11 0 0 0-3.5.916l-.916.419a8.89 8.89 0 0 1 4-1.915l-.168-.168a7.487 7.487 0 0 0-4.334 1.577 19.5 19.5 0 0 0-2.249 8.747 5.437 5.437 0 0 0 4.664 2.25l1-1.249a4.93 4.93 0 0 1-2.664-1.748 4.17 4.17 0 0 1 .417.249h.075a.1.1 0 0 1 .075.037v.014a.1.1 0 0 0 .075.037l1.159.5a10.21 10.21 0 0 0 2.243.668 12.8 12.8 0 0 0 4 0c.768-.146 1.52-.369 2.243-.667a17.83 17.83 0 0 0 1.741-.918 4.95 4.95 0 0 1-2.747 1.749 18.77 18.77 0 0 0 .991 1.246 6.5 6.5 0 0 0 4.822-2.151 19.46 19.46 0 0 0-2.26-8.749 7.494 7.494 0 0 0-4.28-1.57l.07-.025zm.209 5.5a1.67 1.67 0 1 1-1.582 1.671 1.62 1.62 0 0 1 .445-1.166 1.63 1.63 0 0 1 1.141-.507zm-5.661 0a1.67 1.67 0 1 1-1.587 1.671 1.62 1.62 0 0 1 1.587-1.671z"/><path id="BL" d="M13037.648 5922.569a4.17 4.17 0 0 1 2.233-3.786 4.8 4.8 0 0 0-3.782-1.991c-1.585-.125-3.318.924-3.952.924-.67 0-2.206-.88-3.411-.88-2.492.04-5.14 1.987-5.14 5.947a11.13 11.13 0 0 0 .643 3.626c.572 1.639 2.634 5.657 4.787 5.59 1.125-.027 1.92-.8 3.385-.8 1.42 0 2.157.8 3.411.8 2.17-.031 4.036-3.684 4.581-5.327a4.425 4.425 0 0 1-2.755-4.1zm-2.527-7.332a4.205 4.205 0 0 0 1.071-3.237 4.734 4.734 0 0 0-3.032 1.558 4.27 4.27 0 0 0-1.145 3.211 3.75 3.75 0 0 0 3.106-1.532z"/><path id="BK" d="M13027.185 6048.527a6.786 6.786 0 0 0 9.633 0"/><path id="BJ" d="m13037.376 6052.057.185-.137a6.7 6.7 0 0 0 2.778-5.305c0-3.928-3.734-7.115-8.337-7.115s-8.34 3.187-8.34 7.115 3.734 7.007 8.339 7.007q.589 0 1.935-.077a8.74 8.74 0 0 0 4.369 1.365c.462 0 .68-.376.384-.759a8.31 8.31 0 0 1-1.312-2.1z"/><path id="BI" d="M13071.001 6008a9 9 0 0 0-2.093 17.754l-.608-.166v-2.062a2.73 2.73 0 0 1-.788.113 2.044 2.044 0 0 1-1.913-1.688 1.755 1.755 0 0 0-.509-.869c-.266-.237-.39-.237-.392-.318 0-.17.228-.163.338-.163.563 0 .989.6 1.187.908a1.6 1.6 0 0 0 1.288.892c.284.011.567-.039.83-.147a2.67 2.67 0 0 1 .858-1.653c-2.111-.422-3.6-1.633-3.6-3.6a4.01 4.01 0 0 1 1.085-2.7 3.65 3.65 0 0 1-.185-1.24 4.07 4.07 0 0 1 .225-1.463 4 4 0 0 1 2.494 1.156 6.33 6.33 0 0 1 3.562 0 4 4 0 0 1 2.494-1.156c.164.47.241.966.225 1.463.014.432-.037.863-.15 1.28a4 4 0 0 1 1.05 2.658c0 1.968-1.49 3.178-3.6 3.6.58.513.908 1.251.9 2.025v2.962l-.608.166a9 9 0 0 0-2.09-17.752zm.631 17.977-.628.024a9.49 9.49 0 0 0 .628-.024zm1.375-.2a8.98 8.98 0 0 1-1.238.192 9.04 9.04 0 0 0 1.235-.194zm-2 .226c-.211 0-.42-.01-.628-.024a10.49 10.49 0 0 0 .622.022zm-.766-.035a8.91 8.91 0 0 1-1.237-.192 8.93 8.93 0 0 0 1.228.191z"/><path id="BH" d="M13079.873 5988.801v6.492h-3.763v-6.057c0-1.521-.543-2.559-1.906-2.559a2.06 2.06 0 0 0-1.931 1.376 2.57 2.57 0 0 0-.125.917v6.322h-3.764v-11.32h3.765v1.6l-.025.037h.025v-.032a3.737 3.737 0 0 1 3.392-1.87c2.476 0 4.333 1.618 4.333 5.094zm-15.424-10.285a1.96 1.96 0 1 0-.049 3.912h.024a1.96 1.96 0 0 0 1.845-2.969 1.96 1.96 0 0 0-1.82-.943zm-1.908 16.777h3.763v-11.32h-3.763z"/><path id="BG" d="M13078.571 5951.42a4.5 4.5 0 0 0-6.354 0l-2.724 2.722a.687.687 0 0 0 .432 1.171.69.69 0 0 0 .543-.2l2.726-2.718a3.11 3.11 0 0 1 4.4 4.4l-2.931 2.938c-.148.15-.311.284-.487.4a3.14 3.14 0 0 1-.632.32 2.99 2.99 0 0 1-.641.158 3.03 3.03 0 0 1-.436.03c-.06 0-.124 0-.2-.009a3.07 3.07 0 0 1-2.7-1.987.683.683 0 0 0-.816-.419.69.69 0 0 0-.483.876 3.9 3.9 0 0 0 1.013 1.6l.009.009a4.5 4.5 0 0 0 2.7 1.286 4.41 4.41 0 0 0 .474.026q.167 0 .333-.013a4.447 4.447 0 0 0 1.658-.449 4.39 4.39 0 0 0 1.184-.85l2.931-2.931a4.5 4.5 0 0 0 .001-6.36z"/><path id="BF" d="M13072.018 5962.632h-.051a.707.707 0 0 0-.41.192l-2.76 2.76a3.11 3.11 0 0 1-4.4-4.4l2.933-2.928c.148-.15.311-.284.487-.4a3.14 3.14 0 0 1 .632-.32 2.99 2.99 0 0 1 .641-.158 3.03 3.03 0 0 1 .436-.03l.2.009a3.1 3.1 0 0 1 2 .9 3.06 3.06 0 0 1 .731 1.166.673.673 0 0 0 .825.432h.022a.667.667 0 0 0 .449-.816 3.87 3.87 0 0 0-1.051-1.752 4.5 4.5 0 0 0-2.472-1.261l-.244-.034a4.41 4.41 0 0 0-.474-.026l-.329.013a4.31 4.31 0 0 0-.692.107c-.047.009-.09.021-.137.034-.287.076-.566.18-.833.312a4.39 4.39 0 0 0-1.184.85l-2.929 2.931a4.51 4.51 0 0 0-1.3 3.183 4.493 4.493 0 0 0 2.774 4.145 4.49 4.49 0 0 0 4.892-.97l2.79-2.79a.676.676 0 0 0-.546-1.149z"/><path id="BE" d="M60 1774.4v-4.8c0-4-1.6-5.6-5.6-5.6h-4.8c-4 0-5.6 1.6-5.6 5.6v4.8c0 4 1.6 5.6 5.6 5.6h4.8c4 0 5.6-1.6 5.6-5.6z"/><path id="BD" d="M10.2 1773.96v-.96c0-1.232.872-1.736 1.936-1.12l.832.48.832.48a1.185 1.185 0 0 1 0 2.24l-.832.48-.832.48c-1.064.616-1.936.112-1.936-1.123v-.96z"/><path id="BC" d="m3 1700 1.3-3.9a7.42 7.42 0 0 1 2.1-10.374 9.856 9.856 0 0 1 11.846.48 7.36 7.36 0 0 1 1.029 10.5A9.733 9.733 0 0 1 7.7 1699l-4.7 1"/><path id="BB" d="M46.649 1611.642v7.057a.88.88 0 0 1-.882.882h-1.765a.88.88 0 0 1-.882-.882v-6.175a.88.88 0 0 1 .882-.882h2.647"/><path id="BA" d="m9.022 1611.665-.32 6.775 4.9 1.512 4.836-.682 1.236-6.5-1.981-1.3h-1.981l-.6-5.48-2.024-.277-1.342 3.132-.874 1.79z"/><path id="Az" d="m6.648 1612.34-.31 7.074-2.9-.213c-.024.064 0-7.542 0-7.542z"/><path id="Ay" d="M6.649 1611.642v7.057a.88.88 0 0 1-.882.882H4.002a.88.88 0 0 1-.882-.882v-6.175a.88.88 0 0 1 .882-.882h2.647"/><path id="Ax" d="M8.413 1611.642v5.293-5.293a3.53 3.53 0 0 0 3.529-3.529v-.882a1.765 1.765 0 1 1 3.529 0v4.411h2.642c.974 0 1.764.79 1.764 1.764l-.882 4.411c-.261 1.112-.98 1.831-1.764 1.764h-6.172a2.646 2.646 0 0 1-2.646-2.646"/><path id="Aw" d="m9.421 1578.181.083.665c.07.493.385.918.838 1.126l1.626-1.791z"/><path id="Av" d="M11.767 1565.154a1.455 1.455 0 0 0-1.442-1.273H5.334a1.455 1.455 0 0 0-1.453 1.453v10.724a1.455 1.455 0 0 0 1.453 1.453h7.64c.141-.162.26-.263.265-.474.002-.056-1.465-11.83-1.472-11.883zm-1.945 7.987a.487.487 0 0 1-.57-.38l-.31-1.549H7.573l-.31 1.549a.485.485 0 0 1-.95-.19l.968-4.845a.485.485 0 0 1 .475-.389h1c.231 0 .429.163.475.389l.971 4.845a.487.487 0 0 1-.38.57z"/><path id="Au" d="M18.666 1566.521h-6.017l1.255 10.067a1.5 1.5 0 0 1-.359 1.1l-2.125 2.428h7.246a1.455 1.455 0 0 0 1.453-1.453v-10.656a1.483 1.483 0 0 0-1.453-1.486zm0 5.362h-.129a6.135 6.135 0 0 1-1.167 2.122c.356.325.737.592 1.115.891a.484.484 0 0 1-.606.756l-1.183-.95c-.386.354-.74.626-1.151.95a.484.484 0 0 1-.606-.756l1.083-.891a6.11 6.11 0 0 1-1.135-2.122h-.13a.485.485 0 0 1 0-.97h1.453v-.484a.485.485 0 1 1 .968 0v.484h1.486a.484.484 0 1 1 0 .97z"/><path id="At" d="M15.952 1572.018c.19.506.46.979.8 1.4.348-.42.627-.892.826-1.4z"/><path id="As" d="M8.287 1568.215H8.08l-.387 1.938h.982z"/><path id="Ar" d="M8 1408a3.28 3.28 0 0 1 3.5-3h1a3.28 3.28 0 0 1 3.5 3 3 3 0 0 1-2 3 4.17 4.17 0 0 0-2 4"/><path id="Aq" d="m10629.5 878.987 3.487 3.487 6.973-6.974"/><path id="Ap" d="M17.002 1059h-15a1 1 0 0 1-1-1v-15a1 1 0 0 1 1-1h15a1 1 0 0 1 1 1v15a1 1 0 0 1-1 1zm-14.5-6a.5.5 0 1 0 0 1h8a.5.5 0 1 0 0-1zm0-3a.5.5 0 1 0 0 1h14a.5.5 0 1 0 0-1zm0-3a.5.5 0 1 0 0 1h14a.5.5 0 1 0 0-1z"/><path id="Ao" d="M21.002 1055h-2v-13a1 1 0 0 0-1-1h-13v-2a1 1 0 0 1 1-1h15a1 1 0 0 1 1 1v15a1 1 0 0 1-1 1z"/><path id="An" d="M9 924h6a2 2 0 0 1 2 2v14l-5-3-5 3v-14a2 2 0 0 1 2-2"/><path id="Am" d="M12 322.148h1.038l.093.01a9.79 9.79 0 0 1 3.657 1.23l-.73 1.31a8.35 8.35 0 0 0-4.058-1.05zm7.8 3.832.131.173.039.054.017.024.017.024v.006l.012.017v.005l.016.023v.005l.012.017v.005l.011.016.007.01.01.015.007.01.069.075.007.01V326.727l.009.015V327.224l.009.016v.035l.009.016V327.348l.008.016v.006l.008.016V327.421l.008.016v.057l.008.016v.051l.008.016v.062l.008.016v.055l.008.016V327.775l.007.016V328.262l.903.086V328.548l.006.018v.06l.006.019.006.019v.012l.007.02v.012l.006.02v.006l.006.02v.012l.006.02v.006l.006.02v.007l.008.028.008.028v.007l.006.021v.007l.008.028.019.065.008.029.043.161.007.029a9.82 9.82 0 0 1 .2.991l-1.245.535a8.335 8.335 0 0 0-1.647-3.853zm.282 8.137 1.451.379V334.81l-.006.018v.009l-.006.019v.009l-.006.019v.009l-.009.028-.009.028v.009l-.006.019v.009l-.009.028-.009.028-.009.028-.009.028v.009l-.009.028-.01.028-.01.028-.01.028-.013.037a9.84 9.84 0 0 1-1.708 3l-.019.022-.018.022-.018.022-.006.007-.012.014v.005l-.012.014v.006l-.012.014v.012l-.1.052-.006.006v.006l-.006.007v.006l-.012.013-.006.007-.006.006v.012l-.008.008-.008.008-.009.01-.014.015-.015.015-.02.021-.03.031-1.083-1.037a8.36 8.36 0 0 0 1.873-3.479zm-4.819 5.574.586 1.381a9.79 9.79 0 0 1-2.713.715h-1.454q-.324-.01-.643-.041h-.084l.157-1.492a8.49 8.49 0 0 0 .888.046 8.3 8.3 0 0 0 3.262-.61zm-10.381-3.319a8.41 8.41 0 0 0 3.024 2.909l-.736 1.307h-.028l-.016-.009h-.007l-.025-.031h-.007l-.016-.009h-.007l-.016-.009H7.04l-.025-.014-.025-.015-.025-.015a9.9 9.9 0 0 1-3.353-3.307zm-2.097-7.866 1.4.532A8.32 8.32 0 0 0 3.648 332a8.46 8.46 0 0 0 .087 1.208l-1.487.217a9.87 9.87 0 0 1-.1-1.177V331.2l.036-.052v-.011a9.8 9.8 0 0 1 .6-2.631zm6.35-5.935.436 1.435a8.37 8.37 0 0 0-3.577 2.19l-1.078-1.043.2-.2.021-.02.021-.02.015-.014.014-.013.036-.038.025-.02.013-.012.006-.005.006-.006.006-.006.007-.006h.006l.013-.012h.005l.138-.133.007-.006.006-.005.006-.006.007-.006.006-.005.006-.006.014-.012.006-.006.014-.012.007-.006.021-.024.008-.006.022-.02.022-.019a9.83 9.83 0 0 1 3.535-1.938z"/><path id="Al" d="M54 770a3.5 3.5 0 0 0-5 0l-4 4a3.536 3.536 0 1 0 5 5l.5-.5"/><path id="Ak" d="M10 774a3.5 3.5 0 0 0 5 0l4-4a3.536 3.536 0 1 0-5-5l-.5.5"/><path id="AR" d="M13021.611 6053.806h1.261v1.261a1.44 1.44 0 1 0 2.882 0v-1.261h2.522v1.261a1.44 1.44 0 1 0 2.882 0v-1.261h1.261v-7.927h-10.808z"/><path id="AS" d="M13032.642 6038.59a.71.71 0 0 0-.36-.1.72.72 0 0 0-.623.36l-1.081 1.879a5.4 5.4 0 0 0-7.116 0l-1.088-1.879a.72.72 0 0 0-.623-.36.71.71 0 0 0-.36.1.72.72 0 0 0-.265.984l1.339 2.317a5.35 5.35 0 0 0-.852 2.908h10.812a5.35 5.35 0 0 0-.852-2.908l1.339-2.317a.72.72 0 0 0-.265-.984zm-7.7 4.767a.54.54 0 1 1 .54-.54.54.54 0 0 1-.54.54zm4.143 0a.54.54 0 1 1 .54-.54.54.54 0 0 1-.54.54z"/><path id="AT" d="M13034.942 6045.879a1.08 1.08 0 0 0-1.081 1.081v3.6a1.08 1.08 0 1 0 2.162 0v-3.6a1.08 1.08 0 0 0-1.081-1.081z"/><path id="AU" d="M13040.591 6042.648a2.24 2.24 0 0 0-1.586-1.593 53.2 53.2 0 0 0-7.006-.378 53.2 53.2 0 0 0-7.006.378 2.26 2.26 0 0 0-1.587 1.593 25.51 25.51 0 0 0 0 8.707 2.24 2.24 0 0 0 1.587 1.593 53.2 53.2 0 0 0 7.006.378 53.2 53.2 0 0 0 7.006-.378 2.255 2.255 0 0 0 1.586-1.6 25.51 25.51 0 0 0 0-8.707z"/><path id="AV" d="M13030.16 6049.673v-5.343l4.7 2.672z"/><path id="AW" d="M13023.032 6053.658a10.46 10.46 0 0 0 16.1-9.322 7.47 7.47 0 0 0 1.836-1.911 7.32 7.32 0 0 1-2.113.581 3.69 3.69 0 0 0 1.617-2.041 7.15 7.15 0 0 1-2.336.887 3.68 3.68 0 0 0-6.271 3.371 10.43 10.43 0 0 1-7.585-3.857 3.7 3.7 0 0 0 1.138 4.929 3.655 3.655 0 0 1-1.668-.461 3.695 3.695 0 0 0 2.952 3.667 3.67 3.67 0 0 1-1.661.062 3.68 3.68 0 0 0 3.437 2.564 7.38 7.38 0 0 1-5.448 1.523z"/><path id="AX" d="m13032.003 6045.624 3.638.052a4.966 4.966 0 0 1 1.671.311 2.975 2.975 0 0 1 1.708 1.708c.199.535.304 1.1.311 1.671l.052 3.638-.048 3.632a4.97 4.97 0 0 1-.311 1.672 2.975 2.975 0 0 1-1.708 1.708c-.535.198-1.1.303-1.671.311l-3.638.052c-2.4 0-2.688-.009-3.637-.052a4.98 4.98 0 0 1-1.674-.31 3 3 0 0 1-1.708-1.708 5.026 5.026 0 0 1-.311-1.672l-.052-3.638.052-3.638a4.97 4.97 0 0 1 .31-1.671 2.987 2.987 0 0 1 1.708-1.71 5 5 0 0 1 1.672-.311l3.637-.052m0-1.622-3.71.054a6.61 6.61 0 0 0-2.185.418 4.6 4.6 0 0 0-2.635 2.639 6.59 6.59 0 0 0-.418 2.185l-.054 3.71.054 3.71a6.59 6.59 0 0 0 .418 2.185 4.63 4.63 0 0 0 2.631 2.633 6.66 6.66 0 0 0 2.185.418l3.71.053 3.71-.053a6.634 6.634 0 0 0 2.185-.418 4.607 4.607 0 0 0 2.633-2.633 6.553 6.553 0 0 0 .418-2.185l.054-3.71-.054-3.71a6.57 6.57 0 0 0-.418-2.185 4.607 4.607 0 0 0-2.633-2.633 6.553 6.553 0 0 0-2.185-.418l-3.71-.054m0 4.382a4.625 4.625 0 0 0-1.765 8.901 4.625 4.625 0 0 0 5.037-7.548 4.623 4.623 0 0 0-3.269-1.354m0 7.623a3.006 3.006 0 1 1 2.121-.879 3 3 0 0 1-2.121.879"/><path id="AY" d="M13037.723 6047.942a.66.66 0 1 1-.193-.466.66.66 0 0 1 .193.466"/><path id="AZ" d="M13029.989 6054.94h3.206v-8.007h2.233l.238-2.681h-2.471v-1.527c0-.633.127-.882.741-.882h1.735v-2.782h-2.222c-2.386 0-3.46 1.048-3.46 3.053v2.139h-1.661v2.715h1.661z"/><path id="Aj" d="M56 808v-2a2 2 0 0 0-2-2h-8a2 2 0 0 0-2 2v8a2 2 0 0 0 2 2h2"/><path id="Ab" d="m51.5 176.642 3.145 3.145-3.145 3.145"/><path id="Ac" d="M58.704 216.002c0 5.128-6.593 9.524-6.593 9.524s-6.594-4.396-6.594-9.524a6.594 6.594 0 1 1 13.188 0z"/><path id="Ad" d="M46.572 254H59.15a1.58 1.58 0 0 1 1.572 1.572v9.434a1.58 1.58 0 0 1-1.572 1.572H46.572A1.58 1.58 0 0 1 45 265.006v-9.434A1.58 1.58 0 0 1 46.572 254z"/><path id="Ae" d="m60.723 255.572-7.862 5.5-7.861-5.5"/><path id="Af" d="M46 338.676v-4.6A1.08 1.08 0 0 1 47.081 333h4.6a1.08 1.08 0 0 1 .759.316l4.77 4.77a1.08 1.08 0 0 1 0 1.528l-4.6 4.6a1.08 1.08 0 0 1-1.528 0l-4.765-4.774a1.08 1.08 0 0 1-.317-.764zm2.521-4.235a1.08 1.08 0 1 0 1.079 1.08 1.08 1.08 0 0 0-1.079-1.08z"/><path id="Ag" d="M6 141v-2a4 4 0 0 1 4-4h4a4 4 0 0 1 4 4v2"/><path id="Ah" d="M54 168v-2a2 2 0 0 0-2-2h-7a2 2 0 0 0-2 2v12a2 2 0 0 0 2 2h7a2 2 0 0 0 2-2v-2"/><path id="Ai" d="M11061.707-562.546a3.333 3.333 0 0 0-.074-.432l-8.728-.006a3.57 3.57 0 0 1 .258-.979c.181-.431.445-.821.778-1.148a3.457 3.457 0 0 1 1.142-.734 3.58 3.58 0 0 1 4.061.868l1.378-1.349a5.19 5.19 0 0 0-1.742-1.231 5.7 5.7 0 0 0-2.3-.444 5.77 5.77 0 0 0-2.179.415 5.45 5.45 0 0 0-1.778 1.159 5.58 5.58 0 0 0-1.2 1.756 5.29 5.29 0 0 0-.422 1.688h-.056a5.31 5.31 0 0 0-.423-1.689 5.55 5.55 0 0 0-1.2-1.756 5.45 5.45 0 0 0-1.778-1.158 6.05 6.05 0 0 0-4.479.027 5.2 5.2 0 0 0-1.742 1.23l1.378 1.349a3.773 3.773 0 0 1 4.061-.868c.425.166.813.415 1.141.732a3.52 3.52 0 0 1 .779 1.149 3.56 3.56 0 0 1 .258.979l-8.728.005a3.713 3.713 0 0 0-.074.432 4.18 4.18 0 0 0-.03.5 5.87 5.87 0 0 0 .311 1.924 4.45 4.45 0 0 0 .978 1.617 4.93 4.93 0 0 0 1.7 1.171 5.83 5.83 0 0 0 2.268.416 5.77 5.77 0 0 0 2.179-.416 5.45 5.45 0 0 0 1.778-1.156 5.55 5.55 0 0 0 1.2-1.755c.145-.331.255-.677.328-1.032h.248a5.2 5.2 0 0 0 .327 1.031 5.56 5.56 0 0 0 1.2 1.754 5.44 5.44 0 0 0 1.778 1.156 5.76 5.76 0 0 0 2.179.415 5.83 5.83 0 0 0 2.268-.413 4.925 4.925 0 0 0 1.7-1.172 4.44 4.44 0 0 0 .977-1.617 5.88 5.88 0 0 0 .311-1.925 4.18 4.18 0 0 0-.03-.5zm-13.136 1.593a3.44 3.44 0 0 1-.786 1.147 3.54 3.54 0 0 1-1.148.732 4.07 4.07 0 0 1-2.823.018 3.314 3.314 0 0 1-1-.629 2.38 2.38 0 0 1-.511-.675 3.85 3.85 0 0 1-.333-.912h6.72l-.113.316zm10.861.592a2.37 2.37 0 0 1-.511.675 3.314 3.314 0 0 1-1 .629 4.08 4.08 0 0 1-2.824-.016 3.53 3.53 0 0 1-1.148-.733 3.425 3.425 0 0 1-.785-1.147 3 3 0 0 1-.118-.32h6.72a3.84 3.84 0 0 1-.329.917z"/><clipPath id="j"><path d="M0 1037h24v24H0z" class="z AA AH"/></clipPath><clipPath id="B"><path d="M13015.015 6035.5h24v24h-24z" class="y z AH"/></clipPath><clipPath id="AP"><path d="M62 6h20v11.111H62z" class="AA"/></clipPath><clipPath id="AO"><path d="M32 6h20v11.111H32z" class="AA"/></clipPath><clipPath id="AN"><path d="M2 6h20v11.111H2z" class="AA"/></clipPath><clipPath id="AM"><path d="M13327 6554h24v24h-24z" class="AF"/></clipPath><clipPath id="AL"><path d="M13327 6554h24v24h-24z" class="AA"/></clipPath><clipPath id="AK"><path d="M13327 6554h24v24h-24z" class="AK"/></clipPath><clipPath id="AJ"><path d="M13327 6554h24v24h-24z" class="AJ"/></clipPath><clipPath id="AI"><path d="M13241 6414h24v24h-24z" class="y z AH"/></clipPath><clipPath id="AH"><path d="M13020 5910h24v24h-24z" class="y z AH"/></clipPath><clipPath id="AG"><path stroke="#70b4fa" d="M13020 5910h24v24h-24z" class="z AA"/></clipPath><clipPath id="AF"><path d="M13020 6035h24v24h-24z" class="y z AE"/></clipPath><clipPath id="AE"><path d="M13020 6035h24v24h-24z" class="y z AB"/></clipPath><clipPath id="AD"><path d="M13020 6035h24v24h-24z" class="y z AR"/></clipPath><clipPath id="AC"><path stroke="#2c3e50" d="M13020 6035h24v24h-24z" class="y z"/></clipPath><clipPath id="AB"><path d="M13059 6005h24v24h-24z" class="y z AH"/></clipPath><clipPath id="AA"><path d="M13059 5975h24v24h-24z" class="y z AH"/></clipPath><clipPath id="z"><path d="M13059 5947h24v24h-24z" class="y z AE"/></clipPath><clipPath id="y"><path d="M13059 5947h24v24h-24z" class="y z AB"/></clipPath><clipPath id="x"><path d="M13059 5947h24v24h-24z" class="y z AC"/></clipPath><clipPath id="w"><path d="M13059 5947h24v24h-24z" class="y z AD"/></clipPath><clipPath id="v"><path d="M0 1560h24v24H0z" class="z AF AH"/></clipPath><clipPath id="u"><path d="M0 1560h24v24H0z" class="z AA AH"/></clipPath><clipPath id="t"><path d="M0 888h24v24H0z" class="z AA AE"/></clipPath><clipPath id="s"><path d="M0 320h24v24H0z" class="z AA AE"/></clipPath><clipPath id="r"><path d="M11039-575h24v24h-24z" class="z AF AH"/></clipPath><clipPath id="q"><path d="M41 248h24v24H41z" class="z AA AE"/></clipPath><clipPath id="p"><path d="M40 205h24v24H40z" class="z AA AE"/></clipPath><clipPath id="o"><path d="M67 138h24v24H67z" class="z AF AH"/></clipPath><clipPath id="n"><path d="M21 119h24v24H21z" class="z AA AE"/></clipPath><clipPath id="m"><path d="M40 10h24v24H40z" class="z AA AE"/></clipPath><clipPath id="l"><path d="M10598 931h24v24h-24z" class="z AA AH"/></clipPath><clipPath id="k"><path d="M10623 867h24v24h-24z" class="z AA AH"/></clipPath><clipPath id="AQ"><path d="M92 6h20v11.111H92z" class="AA"/></clipPath><clipPath id="i"><path d="M0 1037h24v24H0z" class="z AG AH"/></clipPath><clipPath id="h"><path d="M0 1037h24v24H0z" class="z AH AP"/></clipPath><clipPath id="g"><path d="M0 888h24v24H0z" class="z AA AD"/></clipPath><clipPath id="f"><path d="M0 320h24v24H0z" class="z AA AB"/></clipPath><clipPath id="e"><path d="M0 320h24v24H0z" class="z AC AG"/></clipPath><clipPath id="d"><path d="M0 320h24v24H0z" class="z AA AD"/></clipPath><clipPath id="c"><path d="M11039-575h24v24h-24z" class="z AA AH"/></clipPath><clipPath id="b"><path d="M11039-575h24v24h-24z" class="z AG AH"/></clipPath><clipPath id="a"><path d="M11039-575h24v24h-24z" class="z AH AJ"/></clipPath><clipPath id="Z"><path d="M40 327h24v24H40z" class="z AD AG"/></clipPath><clipPath id="Y"><path d="M40 327h24v24H40z" class="z AA AD"/></clipPath><clipPath id="X"><path d="M41 248h24v24H41z" class="z AA AB"/></clipPath><clipPath id="W"><path d="M41 248h24v24H41z" class="z AC AG"/></clipPath><clipPath id="V"><path d="M41 248h24v24H41z" class="z AA AD"/></clipPath><clipPath id="U"><path d="M40 205h24v24H40z" class="z AA AB"/></clipPath><clipPath id="T"><path d="M40 205h24v24H40z" class="z AC AG"/></clipPath><clipPath id="S"><path d="M40 205h24v24H40z" class="z AA AD"/></clipPath><clipPath id="R"><path d="M41 168h24v24H41z" class="z AG AH"/></clipPath><clipPath id="Q"><path d="M41 168h24v24H41z" class="z AA AH"/></clipPath><clipPath id="P"><path d="M67 138h24v24H67z" class="z AA AH"/></clipPath><clipPath id="O"><path d="M67 138h24v24H67z" class="z AG AH"/></clipPath><clipPath id="N"><path d="M67 138h24v24H67z" class="z AH AJ"/></clipPath><clipPath id="M"><path d="M21 119h24v24H21z" class="z AA AB"/></clipPath><clipPath id="L"><path d="M21 119h24v24H21z" class="z AC AG"/></clipPath><clipPath id="K"><path d="M21 119h24v24H21z" class="z AA AD"/></clipPath><clipPath id="J"><path d="M40 10h24v24H40z" class="z AD AG"/></clipPath><clipPath id="I"><path d="M40 10h24v24H40z" class="z AA AD"/></clipPath><clipPath id="H"><path stroke="#3b5998" d="M13020 6035h24v24h-24z" class="z AA"/></clipPath><clipPath id="G"><path d="M13020 6041h24v24h-24z" class="y z AH"/></clipPath><clipPath id="F"><path d="M13020 6036h24v24h-24z" class="y z AH"/></clipPath><clipPath id="E"><path stroke="#1da1f2" d="M13020 6036h24v24h-24z" class="y z"/></clipPath><clipPath id="D"><path d="M13020 6035h24v24h-24z" class="y z AH"/></clipPath><clipPath id="C"><path stroke="red" d="M13020 6035h24v24h-24z" class="y z"/></clipPath><clipPath id="A"><path fill="#a3c939" d="M13015.015 6035.5h24v24h-24z" class="z AH"/></clipPath></defs><g fill="#a3c939" clip-path="url(#A)" transform="translate(-13015.015 -3915.5)"><use xlink:href="#AR"/><use xlink:href="#AS"/><use xlink:href="#AT"/><use xlink:href="#Bo"/></g><g class="AK Ad" transform="translate(-12975.015 -3915.5)"><use xlink:href="#AR"/><use xlink:href="#AS"/><use xlink:href="#AT"/><use xlink:href="#Bo"/></g><g class="AA Ad" transform="translate(-12935.015 -3915.5)"><use xlink:href="#AR"/><use xlink:href="#AS"/><use xlink:href="#AT"/><use xlink:href="#Bo"/></g><g class="AF Ad" transform="translate(-12895.015 -3915.5)"><use xlink:href="#AR"/><use xlink:href="#AS"/><use xlink:href="#AT"/><use xlink:href="#Bo"/></g><g stroke="red" class="y" clip-path="url(#C)" transform="translate(-13020 -3955)"><use xlink:href="#AU"/><use xlink:href="#AV"/></g><g class="AO" transform="translate(-12980 -3955)"><use xlink:href="#AU" class="y AR"/><use xlink:href="#AV" class="AK"/></g><g class="y"><g class="AB AO" transform="translate(-12940 -3955)"><use xlink:href="#AU"/><use xlink:href="#AV"/></g><g class="AH AO" transform="translate(-12900 -3955)"><use xlink:href="#AU"/><use xlink:href="#AV"/></g><g clip-path="url(#E)" transform="translate(-13020 -3996)"><use xlink:href="#AW" stroke="#1da1f2"/></g></g><use xlink:href="#AW" class="AK Ae" transform="translate(-12980 -3996)"/><use xlink:href="#AW" class="AA Ae" transform="translate(-12940 -3996)"/><use xlink:href="#AW" class="AF Ae" transform="translate(-12900 -3996)"/><g class="AA AS" transform="translate(-12940 -4041)"><use xlink:href="#AX"/><use xlink:href="#AY"/></g><g class="AF AS" transform="translate(-12900 -4041)"><use xlink:href="#AX"/><use xlink:href="#AY"/></g><g class="AK AS" transform="translate(-12980 -4041)"><use xlink:href="#AX"/><use xlink:href="#AY"/></g><g fill="#e1306c" class="AS" transform="translate(-13020 -4041)"><use xlink:href="#AX"/><use xlink:href="#AY"/></g><g class="y" clip-path="url(#H)" transform="translate(-13020 -4075)"><use xlink:href="#AZ" stroke="#3b5998"/></g><use xlink:href="#AZ" class="AK AO" transform="translate(-12980 -4075)"/><use xlink:href="#AZ" class="AA AO" transform="translate(-12940 -4075)"/><use xlink:href="#AZ" class="AF AO" transform="translate(-12900 -4075)"/><g class="y v x"><g class="AD"><rect width="14" height="14" x="5" y="366" rx="2"/><use xlink:href="#Bp" class="w"/></g><g class="AC"><rect width="14" height="14" x="45" y="366" rx="2"/><use xlink:href="#Bp" x="40" class="w"/></g><g class="AB"><rect width="14" height="14" x="85" y="366" rx="2"/><use xlink:href="#Bp" x="80" class="w"/></g></g><use xlink:href="#Aa" class="AJ Al" transform="translate(-40 -10)"/><g class="AG" clip-path="url(#J)" transform="translate(0 -10)"><use xlink:href="#Aa"/></g><use xlink:href="#Aa" class="AA Al" transform="translate(40 -10)"/><g class="y v"><g class="AD" clip-path="url(#K)" transform="translate(-21 -79)"><circle cx="31.5" cy="129.5" r="6.5" class="AT"/><path d="m42 140-6-6" class="w AU"/></g><g class="AC" clip-path="url(#L)" transform="translate(19 -79)"><circle cx="31.5" cy="129.5" r="6.5" class="AT"/><path d="m42 140-6-6" class="w AU"/></g><g class="AB" clip-path="url(#M)" transform="translate(59 -79)"><circle cx="31.5" cy="129.5" r="6.5" class="AT"/><path d="m42 140-6-6" class="w AU"/></g></g><g class="AJ" clip-path="url(#N)" transform="translate(-67 342)"><circle cx="72" cy="143" r="2"/><circle cx="79" cy="143" r="2"/><circle cx="86" cy="143" r="2"/><circle cx="72" cy="150" r="2"/><circle cx="79" cy="150" r="2"/><circle cx="86" cy="150" r="2"/><circle cx="72" cy="157" r="2"/><circle cx="79" cy="157" r="2"/><circle cx="86" cy="157" r="2"/></g><g class="AG" clip-path="url(#O)" transform="translate(-27 342)"><circle cx="72" cy="143" r="2"/><circle cx="79" cy="143" r="2"/><circle cx="86" cy="143" r="2"/><circle cx="72" cy="150" r="2"/><circle cx="79" cy="150" r="2"/><circle cx="86" cy="150" r="2"/><circle cx="72" cy="157" r="2"/><circle cx="79" cy="157" r="2"/><circle cx="86" cy="157" r="2"/></g><g class="AA" clip-path="url(#P)" transform="translate(13 342)"><circle cx="72" cy="143" r="2"/><circle cx="79" cy="143" r="2"/><circle cx="86" cy="143" r="2"/><circle cx="72" cy="150" r="2"/><circle cx="79" cy="150" r="2"/><circle cx="86" cy="150" r="2"/><circle cx="72" cy="157" r="2"/><circle cx="79" cy="157" r="2"/><circle cx="86" cy="157" r="2"/></g><g class="Af" transform="translate(-41 32)"><circle cx="53" cy="180" r="7" class="AJ"/><use xlink:href="#Ab" class="y AB"/></g><g clip-path="url(#R)" transform="translate(-1 32)"><circle cx="53" cy="180" r="7" class="AG"/><use xlink:href="#Ab" class="y AB"/></g><g class="Af" transform="translate(39 32)"><circle cx="53" cy="180" r="7" fill="#647e8d"/><use xlink:href="#Ab" class="y AB"/></g><g class="y v x"><g class="AD" clip-path="url(#S)" transform="translate(-40 235)"><use xlink:href="#Ac"/><circle cx="52.11" cy="216.388" r="2.158"/></g><g class="AC" clip-path="url(#T)" transform="translate(0 235)"><use xlink:href="#Ac"/><circle cx="52.11" cy="216.388" r="2.158"/></g><g class="AB" clip-path="url(#U)" transform="translate(40 235)"><use xlink:href="#Ac"/><circle cx="52.11" cy="216.388" r="2.158"/></g><g class="AD" clip-path="url(#V)" transform="translate(-41 -168)"><use xlink:href="#Ad"/><use xlink:href="#Ae" class="w"/></g><g class="AC" clip-path="url(#W)" transform="translate(-1 -168)"><use xlink:href="#Ad"/><use xlink:href="#Ae" class="w"/></g><g class="AB" clip-path="url(#X)" transform="translate(39 -168)"><use xlink:href="#Ad"/><use xlink:href="#Ae" class="w"/></g></g><use xlink:href="#Af" class="AJ Ag" transform="translate(-40 73)"/><g class="AG" clip-path="url(#Z)" transform="translate(0 73)"><use xlink:href="#Af"/></g><use xlink:href="#Af" class="AA Ag" transform="translate(40 73)"/><g class="y v x"><g class="AD"><circle cx="12" cy="127" r="4"/><use xlink:href="#Ag" class="w"/></g><g class="AC"><circle cx="52" cy="127" r="4"/><use xlink:href="#Ag" x="40" class="w"/></g><g class="AB"><circle cx="92" cy="127" r="4"/><use xlink:href="#Ag" x="80" class="w"/></g><g class="w AD"><path d="M3 297h2.4a5 5 0 0 0 4.1-2.133l.177-.253m3.66-5.227.177-.254A5 5 0 0 1 17.6 287H21m-3-3 3 3-3 3m-15-3h2.4a5 5 0 0 1 4.1 2.133l4.014 5.734A5 5 0 0 0 17.6 297H21"/><path d="m18 300 3-3-3-3"/></g><g class="w AC"><path d="M43 297h2.4a5 5 0 0 0 4.1-2.133l.177-.253m3.66-5.227.177-.254A5 5 0 0 1 57.6 287H61m-3-3 3 3-3 3m-15-3h2.4a5 5 0 0 1 4.1 2.133l4.014 5.734A5 5 0 0 0 57.6 297H61"/><path d="m58 300 3-3-3-3"/></g><g class="w AB"><path d="M83 297h2.4a5 5 0 0 0 4.1-2.133l.177-.253m3.66-5.227.177-.254A5 5 0 0 1 97.6 287h3.4m-3-3 3 3-3 3m-15-3h2.4a5 5 0 0 1 4.1 2.133l4.014 5.734A5 5 0 0 0 97.6 297h3.4"/><path d="m98 300 3-3-3-3"/></g><g class="w AD"><path d="M12 328v4l2 2"/><use xlink:href="#Bq"/></g><g class="w AC"><path d="M52 328v4l2 2"/><use xlink:href="#Bq" x="40"/></g><g class="w AB"><path d="M92 328v4l2 2"/><use xlink:href="#Bq" x="80"/></g><path d="M14 168v-2a2 2 0 0 0-2-2H5a2 2 0 0 0-2 2v12a2 2 0 0 0 2 2h7a2 2 0 0 0 2-2v-2m-7-4h14l-3-3m0 6 3-3" class="w AD"/><g class="w AC"><use xlink:href="#Ah"/><path d="M47 172h14l-3-3m0 6 3-3"/></g><g class="w AB"><use xlink:href="#Ah" x="40"/><path d="M87 172h14l-3-3m0 6 3-3"/></g></g><g class="AJ" clip-path="url(#a)" transform="translate(-11039 815)"><use xlink:href="#Ai"/></g><g class="AG" clip-path="url(#b)" transform="translate(-10999 815)"><use xlink:href="#Ai"/></g><g class="AA" clip-path="url(#c)" transform="translate(-10959 815)"><use xlink:href="#Ai"/></g><g class="y v x"><g class="w AD"><path d="M4 540h4l10.5-10.5a2.83 2.83 0 0 0 0-4 2.83 2.83 0 0 0-4 0L4 536v4M13.5 526.5l4 4"/></g><g class="w AC"><path d="M44 540h4l10.5-10.5a2.83 2.83 0 0 0 0-4 2.83 2.83 0 0 0-4 0L44 536v4M53.5 526.5l4 4"/></g><g class="w AB"><path d="M84 540h4l10.5-10.5a2.83 2.83 0 0 0 0-4 2.83 2.83 0 0 0-4 0L84 536v4M93.5 526.5l4 4"/></g><g class="AD"><rect width="12" height="12" x="8" y="808" rx="2"/><path d="M16 808v-2a2 2 0 0 0-2-2H6a2 2 0 0 0-2 2v8a2 2 0 0 0 2 2h2" class="w"/></g><g class="AC"><rect width="12" height="12" x="48" y="808" rx="2"/><use xlink:href="#Aj" class="w"/></g><g class="AB"><rect width="12" height="12" x="88" y="808" rx="2"/><use xlink:href="#Aj" x="40" class="w"/></g><path d="M7 844v16l13-8z" class="AD"/><path d="M47 844v16l13-8z" class="AC"/><path d="M87 844v16l13-8z" class="AB"/><g class="w"><use xlink:href="#Br" class="AD"/><use xlink:href="#Br" x="40" class="AC"/><use xlink:href="#Br" x="80" class="AB"/></g><g class="AD"><circle cx="12" cy="572" r="3"/><path d="M12 565v-2m5 4 1.4-1.4m.6 6.4h2m-4 5 1.4 1.4m-6.4.6v2m-5-4-1.4 1.4M6 572H4m3-5-1.4-1.4" class="w"/></g><g class="AC"><circle cx="52" cy="572" r="3"/><use xlink:href="#Bs" class="w"/></g><g class="AB"><circle cx="92" cy="572" r="3"/><use xlink:href="#Bs" x="40" class="w"/></g><path d="M12 683h.393a7.5 7.5 0 0 0 7.92 12.446A9 9 0 1 1 12 682.992z" class="AD"/><path d="M52 683h.393a7.5 7.5 0 0 0 7.92 12.446A9 9 0 1 1 52 682.992z" class="AC"/><path d="M92 683h.393a7.5 7.5 0 0 0 7.92 12.446A9 9 0 1 1 92 682.992z" class="AB"/><g class="w AD"><use xlink:href="#Ak"/><path d="M14 770a3.5 3.5 0 0 0-5 0l-4 4a3.536 3.536 0 1 0 5 5l.5-.5"/></g><g class="w AC"><use xlink:href="#Ak" x="40"/><use xlink:href="#Al"/></g><g class="w AB"><use xlink:href="#Ak" x="80"/><use xlink:href="#Al" x="40"/></g><g class="w AD"><path d="M18 606 6 618M6 606l12 12"/></g><g class="w AC"><path d="m58 606-12 12M46 606l12 12"/></g><g class="w AB"><path d="m98 606-12 12M86 606l12 12"/></g></g><g class="AJ" clip-path="url(#d)" transform="translate(0 400)"><use xlink:href="#Am"/></g><g class="AG" clip-path="url(#e)" transform="translate(40 400)"><use xlink:href="#Am"/></g><g class="AA" clip-path="url(#f)" transform="translate(80 400)"><use xlink:href="#Am"/></g><g class="v w x AD"><use xlink:href="#An" class="y"/><use xlink:href="#An" y="40" class="AJ"/></g><g class="v w x"><use xlink:href="#An" x="40" y="40" class="AC AG"/><use xlink:href="#An" x="80" y="40" class="AA AB"/></g><g class="y x"><g class="v w"><use xlink:href="#An" x="40" class="AC"/><use xlink:href="#An" x="80" class="AB"/></g><g class="v w AL"><path d="M6 1004h11a2 2 0 0 1 2 2v12a2 2 0 0 1-2 2H6a1 1 0 0 1-1-1v-14a1 1 0 0 1 1-1m3 0v18M13 1008h2m-2 4h2"/></g><g class="v w AC"><path d="M46 1004h11a2 2 0 0 1 2 2v12a2 2 0 0 1-2 2H46a1 1 0 0 1-1-1v-14a1 1 0 0 1 1-1m3 0v18M53 1008h2m-2 4h2"/></g><g class="v w AB"><path d="M86 1004h11a2 2 0 0 1 2 2v12a2 2 0 0 1-2 2H86a1 1 0 0 1-1-1v-14a1 1 0 0 1 1-1m3 0v18M93 1008h2m-2 4h2"/></g><g class="AL v"><circle cx="10" cy="1090" r="7"/><g class="w"><path d="M7 1090h6M10 1087v6m11 8-6-6"/></g></g><g class="AC v"><circle cx="50" cy="1090" r="7"/><g class="w"><path d="M47 1090h6M50 1087v6m11 8-6-6"/></g></g><g class="AB v"><circle cx="90" cy="1090" r="7"/><g class="w"><path d="M87 1090h6M90 1087v6m11 8-6-6"/></g></g><g class="v AL"><circle cx="10" cy="1130" r="7"/><path d="M7 1130h6m8 11-6-6" class="w"/></g><g class="v AC"><circle cx="50" cy="1130" r="7"/><path d="M47 1130h6m8 11-6-6" class="w"/></g><g class="v AB"><circle cx="90" cy="1130" r="7"/><path d="M87 1130h6m8 11-6-6" class="w"/></g><use xlink:href="#Bt" class="AD Ah" transform="translate(0 -8)"/><use xlink:href="#Bt" class="AC Ah" transform="translate(40 -8)"/><use xlink:href="#Bt" class="AB Ah" transform="translate(80 -8)"/></g><g class="AP" clip-path="url(#h)" transform="translate(0 3)"><use xlink:href="#Ao"/><use xlink:href="#Ap"/></g><g class="AG" clip-path="url(#i)" transform="translate(40 3)"><use xlink:href="#Ao"/><use xlink:href="#Ap"/></g><g class="AA Am" transform="translate(80 3)"><use xlink:href="#Ao"/><use xlink:href="#Ap"/></g><g class="AV" transform="translate(-10623 293)"><circle cx="10635" cy="879" r="10" class="AP"/><use xlink:href="#Aq" class="v w x y AB"/></g><g class="AV" transform="translate(-10583 293)"><circle cx="10635" cy="879" r="10" class="AG"/><use xlink:href="#Aq" class="v w x y AB"/></g><g class="AV" transform="translate(-10543 293)"><circle cx="10635" cy="879" r="10" class="An"/><use xlink:href="#Aq" class="v w x y AC"/></g><g class="AV" transform="translate(-10503 293)"><circle cx="10635" cy="879" r="10" class="AF"/><use xlink:href="#Aq" class="v w x y AB"/></g><g class="AW" transform="translate(-10598 269)"><circle cx="10610" cy="943" r="10" fill="#ff2825"/><g class="v w x y AB"><path d="m10614.001 939-8 8M10606.001 939l8 8"/></g></g><g class="AW" transform="translate(-10558 269)"><circle cx="10610" cy="943" r="10" class="AG"/><g class="v w x y AB"><path d="m10614.001 939-8 8M10606.001 939l8 8"/></g></g><g class="AW" transform="translate(-10518 269)"><circle cx="10610" cy="943" r="10" class="An"/><g class="v w x y AC"><path d="m10614.001 939-8 8M10606.001 939l8 8"/></g></g><g class="AW" transform="translate(-10478 269)"><circle cx="10610" cy="943" r="10" class="AF"/><g class="v w x y AB"><path d="m10614.001 939-8 8M10606.001 939l8 8"/></g></g><path stroke="#f9d1e1" d="M19.5 1253.572 12 1261l-7.5-7.428m0 0a5 5 0 1 1 7.5-6.566 5 5 0 1 1 7.5 6.572" class="v w x y"/><path fill="#f9d1e1" d="M19.5 1293.572 12 1301l-7.5-7.428m0 0a5 5 0 1 1 7.5-6.566 5 5 0 1 1 7.5 6.572"/><path d="M59.5 1253.572 52 1261l-7.5-7.428m0 0a5 5 0 1 1 7.5-6.566 5 5 0 1 1 7.5 6.572" class="v w x y AC"/><path d="M59.5 1293.572 52 1301l-7.5-7.428m0 0a5 5 0 1 1 7.5-6.566 5 5 0 1 1 7.5 6.572" class="AG"/><g class="v w x y"><path d="M99.5 1253.572 92 1261l-7.5-7.428m0 0a5 5 0 1 1 7.5-6.566 5 5 0 1 1 7.5 6.572" class="AB"/><path d="M139.5 1253.572 132 1261l-7.5-7.428m0 0a5 5 0 1 1 7.5-6.566 5 5 0 1 1 7.5 6.572" class="AE"/><path d="M177.5 1253.572 170 1261l-7.5-7.428m0 0a5 5 0 1 1 7.5-6.566 5 5 0 1 1 7.5 6.572" class="AL"/></g><path d="M139.5 1293.572 132 1301l-7.5-7.428m0 0a5 5 0 1 1 7.5-6.566 5 5 0 1 1 7.5 6.572" class="v w x AE AF"/><path d="M179.5 1293.572 172 1301l-7.5-7.428m0 0a5 5 0 1 1 7.5-6.566 5 5 0 1 1 7.5 6.572" class="AP"/><path d="M99.5 1293.572 92 1301l-7.5-7.428m0 0a5 5 0 1 1 7.5-6.566 5 5 0 1 1 7.5 6.572" class="AA"/><g class="y v x"><g class="AL"><circle cx="6" cy="1330" r="2"/><path d="M6 1324v4m0 4v8" class="w"/><circle cx="12" cy="1336" r="2"/><path d="M12 1324v10m0 4v2" class="w"/><circle cx="18" cy="1327" r="2"/><path d="M18 1324v1m0 4v11" class="w"/></g><g class="AC"><circle cx="46" cy="1330" r="2"/><path d="M46 1324v4m0 4v8" class="w"/><circle cx="52" cy="1336" r="2"/><path d="M52 1324v10m0 4v2" class="w"/><circle cx="58" cy="1327" r="2"/><path d="M58 1324v1m0 4v11" class="w"/></g><g class="AB"><circle cx="86" cy="1330" r="2"/><path d="M86 1324v4m0 4v8" class="w"/><circle cx="92" cy="1336" r="2"/><path d="M92 1324v10m0 4v2" class="w"/><circle cx="98" cy="1327" r="2"/><path d="M98 1324v1m0 4v11" class="w"/></g><g class="AE"><circle cx="126" cy="1330" r="2"/><path d="M126 1324v4m0 4v8" class="w"/><circle cx="132" cy="1336" r="2"/><path d="M132 1324v10m0 4v2" class="w"/><circle cx="138" cy="1327" r="2"/><path d="M138 1324v1m0 4v11" class="w"/></g><g class="AL"><circle cx="12" cy="1372" r="9"/><path d="M12 1368h.01m-1.01 4h1v4h1" class="w"/></g><g class="AC"><circle cx="52" cy="1372" r="9"/><path d="M52 1368h.01m-1.01 4h1v4h1" class="w"/></g><g class="AB"><circle cx="92" cy="1372" r="9"/><path d="M92 1368h.01m-1.01 4h1v4h1" class="w"/></g><g class="AE"><circle cx="132" cy="1372" r="9"/><path d="M132 1368h.01m-1.01 4h1v4h1" class="w"/></g><g class="w AL"><use xlink:href="#Ar"/><path d="M12 1419v.01"/></g><g class="w AC"><use xlink:href="#Ar" x="40"/><path d="M52 1419v.01"/></g><g class="w AB"><use xlink:href="#Ar" x="80"/><path d="M92 1419v.01"/></g><g stroke="#989898" class="w"><use xlink:href="#Ar" x="120"/><path d="M132 1419v.01"/></g><g class="w"><use xlink:href="#Bu" class="AL"/><use xlink:href="#Bu" x="40" class="AC"/><use xlink:href="#Bu" x="80" class="AB"/><use xlink:href="#Bu" x="120" class="AE"/><g class="AL"><path d="M12 1485v14M5 1492h14"/></g><g class="AC"><path d="M52 1485v14M45 1492h14"/></g><g class="AB"><path d="M92 1485v14M85 1492h14"/></g><g class="AE"><path d="M132 1485v14M125 1492h14"/></g><use xlink:href="#Bv" class="AL"/><use xlink:href="#Bv" x="40" class="AC"/><use xlink:href="#Bv" x="80" class="AB"/></g><g class="AE"><use xlink:href="#Bv" x="120" class="w"/><rect width="14" height="14" x="125" y="366" rx="2"/><use xlink:href="#Bp" x="120" class="w"/></g></g><use xlink:href="#Aa" class="AF Ao" transform="translate(80 -10)"/><use xlink:href="#Aa" fill="#0f456f" class="Ao" transform="translate(120 -10)"/><g class="v y AE" clip-path="url(#n)" transform="translate(99 -79)"><circle cx="31.5" cy="129.5" r="6.5" class="AT"/><path d="m42 140-6-6" class="w AU"/></g><g class="AF" clip-path="url(#o)" transform="translate(53 342)"><circle cx="72" cy="143" r="2"/><circle cx="79" cy="143" r="2"/><circle cx="86" cy="143" r="2"/><circle cx="72" cy="150" r="2"/><circle cx="79" cy="150" r="2"/><circle cx="86" cy="150" r="2"/><circle cx="72" cy="157" r="2"/><circle cx="79" cy="157" r="2"/><circle cx="86" cy="157" r="2"/></g><g class="Af" transform="translate(79 32)"><circle cx="53" cy="180" r="7" class="AF"/><use xlink:href="#Ab" stroke="#131417" class="y"/></g><g class="y AE v x"><g clip-path="url(#p)" transform="translate(80 235)"><use xlink:href="#Ac"/><circle cx="52.11" cy="216.388" r="2.158"/></g><g clip-path="url(#q)" transform="translate(79 -168)"><use xlink:href="#Ad"/><use xlink:href="#Ae" class="w"/></g></g><use xlink:href="#Af" class="AF Ag" transform="translate(80 73)"/><g class="y AE v x"><circle cx="132" cy="127" r="4"/><g class="w"><use xlink:href="#Ag" x="120"/><path d="M123 297h2.4a5 5 0 0 0 4.1-2.133l.177-.253m3.66-5.227.177-.254A5 5 0 0 1 137.6 287h3.4m-3-3 3 3-3 3m-15-3h2.4a5 5 0 0 1 4.1 2.133l4.014 5.734A5 5 0 0 0 137.6 297h3.4"/><path d="m138 300 3-3-3-3m-6 34v4l2 2m-10.95-3a9 9 0 1 1 .5 4m-.5 5v-5h5"/><use xlink:href="#Ah" x="80"/><path d="M127 172h14l-3-3m0 6 3-3"/></g></g><g class="AF" clip-path="url(#r)" transform="translate(-10919 815)"><use xlink:href="#Ai"/></g><g class="y v x"><g class="w AE"><path d="M124 540h4l10.5-10.5a2.83 2.83 0 0 0 0-4 2.83 2.83 0 0 0-4 0L124 536v4M133.5 526.5l4 4"/></g><g class="w AQ"><path d="M164 540h4l10.5-10.5a2.83 2.83 0 0 0 0-4 2.83 2.83 0 0 0-4 0L164 536v4M173.5 526.5l4 4"/></g><g class="AE"><rect width="12" height="12" x="128" y="808" rx="2"/><use xlink:href="#Aj" x="80" class="w"/><path d="M127 844v16l13-8z"/></g><path stroke="#666" d="M167 844v16l13-8z"/><path d="M207 844v16l13-8z" class="AN"/><g class="AE"><use xlink:href="#Br" x="120" class="w"/><circle cx="132" cy="572" r="3"/><use xlink:href="#Bs" x="80" class="w"/><path d="M132 683h.393a7.5 7.5 0 0 0 7.92 12.446A9 9 0 1 1 132 682.992z"/><g class="w"><use xlink:href="#Ak" x="120"/><use xlink:href="#Al" x="80"/><path d="m138 606-12 12M126 606l12 12"/></g></g></g><g class="AF" clip-path="url(#s)" transform="translate(120 400)"><use xlink:href="#Am"/></g><g class="v w x"><use xlink:href="#An" x="120" y="40" class="AE AF"/><use xlink:href="#An" x="160" y="40" class="AQ Ai"/></g><g class="y x"><g class="v w"><use xlink:href="#An" x="120" class="AE"/><use xlink:href="#An" x="160" class="AQ"/></g><g class="AE"><g class="v w"><path d="M126 1004h11a2 2 0 0 1 2 2v12a2 2 0 0 1-2 2h-11a1 1 0 0 1-1-1v-14a1 1 0 0 1 1-1m3 0v18M133 1008h2m-2 4h2"/></g><circle cx="130" cy="1090" r="7" class="v"/><g class="v w"><path d="M127 1090h6M130 1087v6m11 8-6-6"/></g><g class="v"><circle cx="130" cy="1130" r="7"/><path d="M127 1130h6m8 11-6-6" class="w"/></g><g clip-path="url(#t)" transform="translate(120 -8)"><use xlink:href="#Bt"/></g></g></g><g class="AF Am" transform="translate(120 3)"><use xlink:href="#Ao"/><use xlink:href="#Ap"/></g><path d="M85 1048h2m-2 4h2" class="v w x y AB"/><g class="AP Aj"><use xlink:href="#As"/><use xlink:href="#At"/><use xlink:href="#Au"/><use xlink:href="#Av"/><use xlink:href="#Aw"/></g><g class="AG Aj" transform="translate(40)"><use xlink:href="#As"/><use xlink:href="#At"/><use xlink:href="#Au"/><use xlink:href="#Av"/><use xlink:href="#Aw"/></g><g class="AA Aj" transform="translate(80)"><use xlink:href="#As"/><use xlink:href="#At"/><use xlink:href="#Au"/><use xlink:href="#Av"/><use xlink:href="#Aw"/></g><g class="AF" clip-path="url(#v)" transform="translate(120)"><use xlink:href="#As"/><use xlink:href="#At"/><use xlink:href="#Au"/><use xlink:href="#Av"/><use xlink:href="#Aw"/></g><g class="v w x AX"><use xlink:href="#Ax" class="y"/><use xlink:href="#Ay" class="AM"/></g><g fill="#048c25"><use xlink:href="#Az"/><use xlink:href="#BA"/></g><g class="v w x AC"><use xlink:href="#Ax" x="40" class="y"/><use xlink:href="#BB" class="AM"/></g><g class="AG"><use xlink:href="#Az" x="40"/><use xlink:href="#BA" x="40"/></g><g class="v w x AQ"><use xlink:href="#Ax" x="160" class="y"/><use xlink:href="#BB" x="120" class="Ai"/></g><g class="Ai"><use xlink:href="#Az" x="160"/><use xlink:href="#BA" x="160"/></g><g class="v w x AB"><use xlink:href="#Ax" x="80" class="y"/><use xlink:href="#BB" x="40" class="AM"/></g><g class="AA"><use xlink:href="#Az" x="80"/><use xlink:href="#BA" x="80"/></g><g class="v w x AE"><use xlink:href="#Ax" x="120" class="y"/><use xlink:href="#BB" x="80" class="AM"/></g><g class="AF"><use xlink:href="#Az" x="120"/><use xlink:href="#BA" x="120"/></g><g class="v w x AC"><use xlink:href="#Ax" x="40" y="40" class="y"/><use xlink:href="#BB" y="40" class="AM"/></g><g class="v w x AX"><use xlink:href="#Ax" y="40" class="y"/><use xlink:href="#Ay" y="40" class="AM"/></g><g class="v w x AB"><use xlink:href="#Ax" x="80" y="40" class="y"/><use xlink:href="#BB" x="40" y="40" class="AM"/></g><g class="v w x AE"><use xlink:href="#Ax" x="120" y="40" class="y"/><use xlink:href="#BB" x="80" y="40" class="AM"/></g><g class="v w x AQ"><use xlink:href="#Ax" x="160" y="40" class="y"/><use xlink:href="#BB" x="120" y="40" class="AM"/></g><g class="y v"><g class="w x AX"><use xlink:href="#BC"/><use xlink:href="#Bw"/></g><g class="w x AC"><use xlink:href="#BC" x="40"/><use xlink:href="#Bw" x="40"/></g><g class="w x AB"><use xlink:href="#BC" x="80"/><use xlink:href="#Bw" x="80"/></g><g class="w x AE"><use xlink:href="#BC" x="120"/><use xlink:href="#Bw" x="120"/></g><g class="w x AX"><use xlink:href="#Ak" y="960"/><use xlink:href="#Al" x="-40" y="960"/></g><g class="w x AC"><use xlink:href="#Ak" x="40" y="960"/><use xlink:href="#Al" y="960"/></g><g class="w x AB"><use xlink:href="#Ak" x="80" y="960"/><use xlink:href="#Al" x="40" y="960"/></g><g class="w x AE"><use xlink:href="#Ak" x="120" y="960"/><use xlink:href="#Al" x="80" y="960"/></g><g class="AL AI"><path d="M20 1774.4v-4.8c0-4-1.6-5.6-5.6-5.6H9.6c-4 0-5.6 1.6-5.6 5.6v4.8c0 4 1.6 5.6 5.6 5.6h4.8c4 0 5.6-1.6 5.6-5.6z"/><g class="w"><use xlink:href="#Bx"/><path d="M14.784 1764.088v3.528"/></g><use xlink:href="#BD"/></g><g class="AC AI"><use xlink:href="#BE"/><g class="w"><use xlink:href="#Bx" x="40"/><path d="M54.784 1764.088v3.528"/></g><use xlink:href="#BD" x="40"/></g><g class="AB AI"><use xlink:href="#BE" x="40"/><g class="w"><use xlink:href="#Bx" x="80"/><path d="M94.784 1764.088v3.528"/></g><use xlink:href="#BD" x="80"/></g><g class="AE AI"><use xlink:href="#BE" x="80"/><g class="w"><use xlink:href="#Bx" x="120"/><path d="M134.784 1764.088v3.528"/></g><use xlink:href="#BD" x="120"/></g></g><g class="AD AJ AY" clip-path="url(#w)" transform="translate(-13059 -4147)"><use xlink:href="#BF"/><use xlink:href="#BG"/></g><g class="AC AG AY" clip-path="url(#x)" transform="translate(-13019 -4147)"><use xlink:href="#BF"/><use xlink:href="#BG"/></g><g class="AA AB AY" clip-path="url(#y)" transform="translate(-12979 -4147)"><use xlink:href="#BF"/><use xlink:href="#BG"/></g><g class="AE AF AY" clip-path="url(#z)" transform="translate(-12939 -4147)"><use xlink:href="#BF"/><use xlink:href="#BG"/></g><use xlink:href="#BH" class="AJ AZ" transform="translate(-13059 -4135)"/><use xlink:href="#BH" fill="#0e2b3c" class="AZ" transform="translate(-13019 -4135)"/><use xlink:href="#BH" class="AA AZ" transform="translate(-12979 -4135)"/><use xlink:href="#BH" class="AF AZ" transform="translate(-12939 -4135)"/><use xlink:href="#BI" class="Aa" transform="translate(-13059 -4125)"/><use xlink:href="#BI" class="AK Aa" transform="translate(-13019 -4125)"/><use xlink:href="#BI" class="AA Aa" transform="translate(-12979 -4125)"/><use xlink:href="#BI" class="AF Aa" transform="translate(-12939 -4125)"/><g class="y"><g stroke="#2c3e50" class="v AI" clip-path="url(#AC)" transform="translate(-13020 -4115)"><use xlink:href="#BJ"/><use xlink:href="#BK" class="w"/></g><g class="v AI AR" clip-path="url(#AD)" transform="translate(-12980 -4115)"><use xlink:href="#BJ"/><use xlink:href="#BK" class="w"/></g><g class="v AB AI" clip-path="url(#AE)" transform="translate(-12940 -4115)"><use xlink:href="#BJ"/><use xlink:href="#BK" class="w"/></g><g class="v AE AI" clip-path="url(#AF)" transform="translate(-12900 -4115)"><use xlink:href="#BJ"/><use xlink:href="#BK" class="w"/></g><g class="AR" clip-path="url(#AG)" transform="translate(-13020 -3750)"><use xlink:href="#BL"/></g></g><use xlink:href="#BL" class="AK Ak" transform="translate(-12980 -3750)"/><use xlink:href="#BL" class="AA Ak" transform="translate(-12940 -3750)"/><use xlink:href="#BL" class="AF Ak" transform="translate(-12900 -3750)"/><use xlink:href="#BM" fill="#475eec" class="Ab" transform="translate(-13241 -4214)"/><use xlink:href="#BM" class="AK Ab" transform="translate(-13201 -4214)"/><use xlink:href="#BM" class="AA Ab" transform="translate(-13161 -4214)"/><use xlink:href="#BM" class="AF Ab" transform="translate(-13121 -4214)"/><g class="AJ" clip-path="url(#AJ)" transform="translate(-13327 -4314)"><g transform="rotate(-21 24371.428 -32673.544)"><use xlink:href="#BN"/><use xlink:href="#BO"/><use xlink:href="#BP"/><use xlink:href="#BQ"/><use xlink:href="#BR"/><use xlink:href="#BS"/><use xlink:href="#BT"/><use xlink:href="#BU"/><use xlink:href="#BV"/></g></g><g class="AK" clip-path="url(#AK)" transform="translate(-13287 -4314)"><g transform="rotate(-21 24371.428 -32673.544)"><use xlink:href="#BN"/><use xlink:href="#BO"/><use xlink:href="#BP"/><use xlink:href="#BQ"/><use xlink:href="#BR"/><use xlink:href="#BS"/><use xlink:href="#BT"/><use xlink:href="#BU"/><use xlink:href="#BV"/></g></g><g class="AA" clip-path="url(#AL)" transform="translate(-13247 -4314)"><g transform="rotate(-21 24371.428 -32673.544)"><use xlink:href="#BN"/><use xlink:href="#BO"/><use xlink:href="#BP"/><use xlink:href="#BQ"/><use xlink:href="#BR"/><use xlink:href="#BS"/><use xlink:href="#BT"/><use xlink:href="#BU"/><use xlink:href="#BV"/></g></g><g class="AF" clip-path="url(#AM)" transform="translate(-13207 -4314)"><g transform="rotate(-21 24371.428 -32673.544)"><use xlink:href="#BN"/><use xlink:href="#BO"/><use xlink:href="#BP"/><use xlink:href="#BQ"/><use xlink:href="#BR"/><use xlink:href="#BS"/><use xlink:href="#BT"/><use xlink:href="#BU"/><use xlink:href="#BV"/></g></g><circle cx="12" cy="2372" r="9.5" stroke="#004cfe" class="y"/><use xlink:href="#BW" fill="#004cfe"/><circle cx="52" cy="2372" r="9.5" class="y AC"/><use xlink:href="#BW" x="40" class="AG"/><circle cx="92" cy="2372" r="9.5" class="y AB"/><use xlink:href="#BW" x="80" class="AA"/><circle cx="132" cy="2372" r="9.5" class="y AE"/><use xlink:href="#BW" x="120" class="AF"/><use xlink:href="#BX" fill="#dd1c5e"/><use xlink:href="#BX" x="40" class="AG"/><use xlink:href="#BX" x="80" class="AA"/><use xlink:href="#BX" x="120" class="AF"/><g fill="#ffb300" stroke="#ffb300" class="Ac"><use xlink:href="#BY"/><use xlink:href="#BZ"/><use xlink:href="#Ba"/><use xlink:href="#BY"/><use xlink:href="#BZ"/><use xlink:href="#Ba"/></g><g class="AC AG Ac"><use xlink:href="#Bb"/><use xlink:href="#Bc"/><use xlink:href="#Ba" x="40"/><use xlink:href="#Bb"/><use xlink:href="#Bc"/><use xlink:href="#Ba" x="40"/></g><g class="AA AB Ac"><use xlink:href="#BY" x="80"/><use xlink:href="#Bc" x="40"/><use xlink:href="#Ba" x="80"/><use xlink:href="#BY" x="80"/><use xlink:href="#Bc" x="40"/><use xlink:href="#Ba" x="80"/></g><g class="AE AF Ac"><use xlink:href="#BY" x="120"/><use xlink:href="#Bc" x="80"/><use xlink:href="#Ba" x="120"/><use xlink:href="#BY" x="120"/><use xlink:href="#Bc" x="80"/><use xlink:href="#Ba" x="120"/></g><g class="y"><g class="AD"><g class="v w"><use xlink:href="#Bd"/><use xlink:href="#Be"/><use xlink:href="#Bd"/><use xlink:href="#Be"/></g><circle cx="12" cy="2412" r="9.5"/><circle cx="12" cy="2412" r="9.5"/></g><g class="AC"><g class="v w"><use xlink:href="#Bd" x="40"/><use xlink:href="#Be" x="40"/><use xlink:href="#Bd" x="40"/><use xlink:href="#Be" x="40"/></g><circle cx="52" cy="2412" r="9.5"/><circle cx="52" cy="2412" r="9.5"/></g><g class="AB"><g class="v w"><use xlink:href="#Bd" x="80"/><use xlink:href="#Be" x="80"/><use xlink:href="#Bd" x="80"/><use xlink:href="#Be" x="80"/></g><circle cx="92" cy="2412" r="9.5"/><circle cx="92" cy="2412" r="9.5"/></g><g class="AE"><g class="v w"><use xlink:href="#Bd" x="120"/><use xlink:href="#Be" x="120"/><use xlink:href="#Bd" x="120"/><use xlink:href="#Be" x="120"/></g><circle cx="132" cy="2412" r="9.5"/><circle cx="132" cy="2412" r="9.5"/></g></g><g fill="#ea703a"><path d="m22.798 2451.5-1.977-2.043.4-2.815a.716.716 0 0 0-.586-.806l-2.8-.491-1.337-2.511a.717.717 0 0 0-.948-.308l-2.552 1.249-2.553-1.249a.717.717 0 0 0-.948.308l-1.332 2.512-2.8.491a.716.716 0 0 0-.586.806l.4 2.815-1.981 2.042a.717.717 0 0 0 0 1l1.977 2.043-.4 2.815a.716.716 0 0 0 .586.806l2.8.491 1.337 2.511a.717.717 0 0 0 .948.308l2.552-1.249 2.554 1.248c.347.17.767.034.948-.308l1.333-2.511 2.8-.491a.716.716 0 0 0 .586-.806l-.4-2.815 1.979-2.042a.717.717 0 0 0 0-1zm-3.25 2.3a.72.72 0 0 0-.194.6l.35 2.476-2.462.432a.717.717 0 0 0-.509.37l-1.172 2.208-2.246-1.1a.72.72 0 0 0-.63 0l-2.246 1.1-1.172-2.213a.717.717 0 0 0-.509-.37l-2.46-.432.35-2.476a.72.72 0 0 0-.195-.6L4.712 2452l1.738-1.8a.72.72 0 0 0 .195-.6l-.347-2.471 2.459-.429a.72.72 0 0 0 .51-.37l1.171-2.211 2.246 1.1a.72.72 0 0 0 .63 0l2.246-1.1 1.172 2.209a.717.717 0 0 0 .509.37l2.462.432-.35 2.476a.72.72 0 0 0 .195.6l1.738 1.8z"/><use xlink:href="#Bf"/><use xlink:href="#Bg"/><use xlink:href="#Bh"/></g><g class="AG"><path d="m62.798 2451.5-1.977-2.043.4-2.815a.716.716 0 0 0-.586-.806l-2.8-.491-1.337-2.511a.717.717 0 0 0-.948-.308l-2.552 1.249-2.553-1.249a.717.717 0 0 0-.948.308l-1.332 2.512-2.8.491a.716.716 0 0 0-.586.806l.4 2.815-1.981 2.042a.717.717 0 0 0 0 1l1.977 2.043-.4 2.815a.716.716 0 0 0 .586.806l2.8.491 1.337 2.511a.717.717 0 0 0 .948.308l2.552-1.249 2.554 1.248c.347.17.767.034.948-.308l1.333-2.511 2.8-.491a.716.716 0 0 0 .586-.806l-.4-2.815 1.979-2.042a.717.717 0 0 0 0-1zm-3.25 2.3a.72.72 0 0 0-.194.6l.35 2.476-2.462.432a.717.717 0 0 0-.509.37l-1.172 2.208-2.246-1.1a.72.72 0 0 0-.63 0l-2.246 1.1-1.172-2.213a.717.717 0 0 0-.509-.37l-2.46-.432.35-2.476a.72.72 0 0 0-.195-.6L44.712 2452l1.738-1.8a.72.72 0 0 0 .195-.6l-.347-2.471 2.459-.429a.72.72 0 0 0 .51-.37l1.171-2.211 2.246 1.1a.72.72 0 0 0 .63 0l2.246-1.1 1.172 2.209a.717.717 0 0 0 .509.37l2.462.432-.35 2.476a.72.72 0 0 0 .195.6l1.738 1.8z"/><use xlink:href="#Bf" x="40"/><use xlink:href="#Bg" x="40"/><use xlink:href="#Bh" x="40"/></g><g class="AA"><path d="m102.798 2451.5-1.977-2.043.4-2.815a.716.716 0 0 0-.586-.806l-2.8-.491-1.337-2.511a.717.717 0 0 0-.948-.308l-2.552 1.249-2.553-1.249a.717.717 0 0 0-.948.308l-1.332 2.512-2.8.491a.716.716 0 0 0-.586.806l.4 2.815-1.981 2.042a.717.717 0 0 0 0 1l1.977 2.043-.4 2.815a.716.716 0 0 0 .586.806l2.8.491 1.337 2.511a.717.717 0 0 0 .948.308l2.552-1.249 2.554 1.248c.347.17.767.034.948-.308l1.333-2.511 2.8-.491a.716.716 0 0 0 .586-.806l-.4-2.815 1.979-2.042a.717.717 0 0 0 0-1zm-3.25 2.3a.72.72 0 0 0-.194.6l.35 2.476-2.462.432a.717.717 0 0 0-.509.37l-1.172 2.208-2.246-1.1a.72.72 0 0 0-.63 0l-2.246 1.1-1.172-2.213a.717.717 0 0 0-.509-.37l-2.46-.432.35-2.476a.72.72 0 0 0-.195-.6L84.712 2452l1.738-1.8a.72.72 0 0 0 .195-.6l-.347-2.471 2.459-.429a.72.72 0 0 0 .51-.37l1.171-2.211 2.246 1.1a.72.72 0 0 0 .63 0l2.246-1.1 1.172 2.209a.717.717 0 0 0 .509.37l2.462.432-.35 2.476a.72.72 0 0 0 .195.6l1.738 1.8z"/><use xlink:href="#Bf" x="80"/><use xlink:href="#Bi"/><use xlink:href="#Bh" x="80"/></g><g class="AF"><path d="m142.798 2451.5-1.977-2.043.4-2.815a.716.716 0 0 0-.586-.806l-2.8-.491-1.337-2.511a.717.717 0 0 0-.948-.308l-2.552 1.249-2.553-1.249a.717.717 0 0 0-.948.308l-1.332 2.512-2.8.491a.716.716 0 0 0-.586.806l.4 2.815-1.981 2.042a.717.717 0 0 0 0 1l1.977 2.043-.4 2.815a.716.716 0 0 0 .586.806l2.8.491 1.337 2.511a.717.717 0 0 0 .948.308l2.552-1.249 2.554 1.248c.347.17.767.034.948-.308l1.333-2.511 2.8-.491a.716.716 0 0 0 .586-.806l-.4-2.815 1.979-2.042a.717.717 0 0 0 0-1zm-3.25 2.3a.72.72 0 0 0-.194.6l.35 2.476-2.462.432a.717.717 0 0 0-.509.37l-1.172 2.208-2.246-1.1a.72.72 0 0 0-.63 0l-2.246 1.1-1.172-2.213a.717.717 0 0 0-.509-.37l-2.46-.432.35-2.476a.72.72 0 0 0-.195-.6l-1.741-1.795 1.738-1.8a.72.72 0 0 0 .195-.6l-.347-2.471 2.459-.429a.72.72 0 0 0 .51-.37l1.171-2.211 2.246 1.1a.72.72 0 0 0 .63 0l2.246-1.1 1.172 2.209a.717.717 0 0 0 .509.37l2.462.432-.35 2.476a.72.72 0 0 0 .195.6l1.738 1.8z"/><use xlink:href="#Bf" x="120"/><use xlink:href="#Bi" x="40"/><use xlink:href="#Bh" x="120"/></g><path d="M14.334 2485.006c.08.011.156.042.22.092l7.27 5.679a.452.452 0 0 1 0 .717l-7.27 5.679a.453.453 0 0 1-.734-.355v-2.279a17.36 17.36 0 0 0-3.763.269 14.917 14.917 0 0 0-7.3 3.259.454.454 0 0 1-.734-.482c1.9-5.845 7.672-8.63 11.792-9.741v-2.386a.455.455 0 0 1 .513-.458zm.393 1.377v1.8c0 .207-.14.387-.34.439-3.589.908-8.6 3.217-10.855 7.759a16.67 16.67 0 0 1 6.368-2.467 20.2 20.2 0 0 1 4.395-.277c.245.01.437.213.435.458v1.8l6.077-4.75z" class="AK"/><g fill="#107028"><path d="M54.554 2485.1a.458.458 0 0 0-.22-.092h-.006a.453.453 0 0 0-.512.454v2.386c-4.121 1.11-9.895 3.9-11.792 9.741a.454.454 0 0 0 .735.482 14.917 14.917 0 0 1 7.3-3.259 17.36 17.36 0 0 1 3.763-.269v2.279a.453.453 0 0 0 .735.355l7.27-5.679a.45.45 0 0 0 .175-.358.46.46 0 0 0-.175-.359zm.173 3.089v-1.8l6.073 4.753-6.077 4.75v-1.792a.454.454 0 0 0-.435-.458 20.2 20.2 0 0 0-4.395.277 16.67 16.67 0 0 0-6.366 2.47c2.259-4.542 7.265-6.85 10.855-7.759.2-.052.34-.232.34-.439z" class="Ap"/><path d="M54.334 2485.006c.08.011.156.042.22.092l7.27 5.679a.452.452 0 0 1 0 .717l-7.27 5.679a.453.453 0 0 1-.735-.355v-2.279a17.36 17.36 0 0 0-3.763.269 14.917 14.917 0 0 0-7.3 3.259.453.453 0 0 1-.735-.482c1.9-5.845 7.672-8.63 11.792-9.741v-2.386a.455.455 0 0 1 .515-.458zm.393 1.377v1.8c0 .207-.14.387-.34.439-3.587.912 5.872-.664 3.613 3.878.5 0-3.77.375-1.5 0 1.45-.252-3.678 1.069-2.208 1.138 3.995-.529.229.056.31.141s3.398-2.562 3.398-2.444l-3.273 4.556-2.227-5.391z"/></g><g class="AK"><path d="M94.554 2485.1a.458.458 0 0 0-.22-.092h-.006a.453.453 0 0 0-.512.454v2.386c-4.12 1.11-9.895 3.9-11.792 9.741a.454.454 0 0 0 .735.482 14.917 14.917 0 0 1 7.3-3.259 17.36 17.36 0 0 1 3.763-.269v2.279a.453.453 0 0 0 .734.355l7.27-5.679a.45.45 0 0 0 .175-.358.46.46 0 0 0-.175-.359zm.173 3.089v-1.8l6.073 4.753-6.077 4.75v-1.792a.454.454 0 0 0-.435-.458 20.2 20.2 0 0 0-4.395.277 16.67 16.67 0 0 0-6.366 2.47c2.259-4.542 7.265-6.85 10.855-7.759.2-.052.34-.232.34-.439z" class="Ap"/><path d="M94.334 2485.006c.08.011.156.042.22.092l7.27 5.679a.45.45 0 0 1 .175.358.46.46 0 0 1-.175.359l-7.27 5.679a.453.453 0 0 1-.734-.355v-2.279a17.36 17.36 0 0 0-3.763.269 14.917 14.917 0 0 0-7.3 3.259.453.453 0 0 1-.735-.482c1.9-5.845 7.672-8.63 11.792-9.741v-2.386a.455.455 0 0 1 .514-.458zm.393 1.377v1.8c0 .207-.14.387-.34.439-3.587.912 5.872-.664 3.613 3.878.5 0-3.77.375-1.5 0 1.45-.252-3.678 1.069-2.208 1.138 3.994-.529.229.056.31.141s3.398-2.562 3.398-2.444l-3.273 4.556-2.227-5.391z"/></g><use xlink:href="#Bj" fill="#a5a5a5"/><use xlink:href="#Bj" x="40" class="AA"/><g class="v w y"><path d="M5.345 2534.343h15.312l-4.922-4.921 4.922-4.922H5.345v17.5" class="AH"/><path d="M40.345 2534.343h15.312l-4.922-4.921 4.922-4.922H40.345v17.5" class="AB"/><path d="M82.345 2534.343h15.312l-4.922-4.921 4.922-4.922H82.345v17.5" class="AN"/><path stroke="#107028" d="M120.345 2534.343h15.312l-4.922-4.921 4.922-4.922h-15.312v17.5"/></g><use xlink:href="#Bk" class="AJ"/><use xlink:href="#Bk" x="35" class="AG"/><use xlink:href="#Bk" x="77" class="AA"/><use xlink:href="#Bk" x="115" fill="#c5c5c5"/><g clip-path="url(#AN)" transform="translate(0 2600.5)"><path fill="#707070" d="M12 17.11a.828.828 0 0 1-.592-.251L2.246 7.464a.873.873 0 0 1 0-1.213.822.822 0 0 1 1.183 0L12 15.039l8.57-8.787a.822.822 0 0 1 1.183 0 .873.873 0 0 1 0 1.213l-9.163 9.394a.828.828 0 0 1-.592.252z"/></g><g clip-path="url(#AO)" transform="translate(10 2600.5)"><path fill="#144264" d="M42 17.11a.828.828 0 0 1-.592-.251l-9.163-9.395a.873.873 0 0 1 0-1.213.822.822 0 0 1 1.183 0L42 15.039l8.57-8.787a.822.822 0 0 1 1.183 0 .873.873 0 0 1 0 1.213l-9.163 9.394a.828.828 0 0 1-.592.252z"/></g><g clip-path="url(#AP)" transform="translate(20 2600.5)"><path fill="#3b3b3b" d="M72 17.11a.828.828 0 0 1-.592-.251l-9.163-9.395a.873.873 0 0 1 0-1.213.822.822 0 0 1 1.183 0L72 15.039l8.57-8.787a.822.822 0 0 1 1.183 0 .873.873 0 0 1 0 1.213l-9.163 9.394a.828.828 0 0 1-.592.252z"/></g><g class="AA" clip-path="url(#AQ)" transform="translate(30 2600.5)"><path d="M102 17.11a.829.829 0 0 1-.592-.251l-9.163-9.395a.873.873 0 0 1 0-1.213.822.822 0 0 1 1.183 0L102 15.039l8.571-8.787a.822.822 0 0 1 .913-.186.811.811 0 0 1 .27.186.874.874 0 0 1 0 1.213l-9.163 9.393a.83.83 0 0 1-.592.252Z"/></g><path fill="#0f456f" d="M170.168 58.329a8.12 8.12 0 0 0 5.035-1.744L180.616 62 182 60.615l-5.413-5.415a8.16 8.16 0 1 0-6.419 3.129zm0-14.37a6.2 6.2 0 1 1-4.386 1.817 6.2 6.2 0 0 1 4.386-1.816z"/><g class="y v"><g class="w AD"><path d="M16.75 2646.125h3.188a1.063 1.063 0 0 1 1.062 1.063v11.687a2.124 2.124 0 0 1-2.125 2.125m0 0a2.124 2.124 0 0 1-2.125-2.125v-13.812c0-.587-.475-1.062-1.062-1.063H5.063c-.587 0-1.063.476-1.063 1.063v12.75A3.19 3.19 0 0 0 7.188 2661z"/><use xlink:href="#By"/></g><g stroke="#666" class="w"><path d="M56.75 2646.125h3.188a1.063 1.063 0 0 1 1.062 1.063v11.687a2.124 2.124 0 0 1-2.125 2.125m0 0a2.124 2.124 0 0 1-2.125-2.125v-13.812c0-.587-.475-1.062-1.062-1.063H45.063c-.587 0-1.063.476-1.063 1.063v12.75a3.19 3.19 0 0 0 3.188 3.187z"/><use xlink:href="#By" x="40"/></g><g class="w AN"><path d="M96.75 2646.125h3.188a1.063 1.063 0 0 1 1.062 1.063v11.687a2.124 2.124 0 0 1-2.125 2.125m0 0a2.124 2.124 0 0 1-2.125-2.125v-13.812c0-.587-.475-1.062-1.062-1.063H85.063c-.587 0-1.063.476-1.063 1.063v12.75a3.19 3.19 0 0 0 3.188 3.187z"/><use xlink:href="#By" x="80"/></g><g class="AD"><path d="M7 2697.875a2.56 2.56 0 0 1 .458-1.5 1.39 1.39 0 0 1 1.1-.622H17" class="w"/><path d="M8.563 2684H17v16H8.563a1.41 1.41 0 0 1-1.1-.586A2.31 2.31 0 0 1 7 2698v-12a2.313 2.313 0 0 1 .458-1.414 1.41 1.41 0 0 1 1.1-.586z"/></g><g stroke="#666"><path d="M47 2697.875a2.56 2.56 0 0 1 .458-1.5 1.39 1.39 0 0 1 1.1-.622H57" class="w"/><path d="M48.563 2684H57v16h-8.437a1.41 1.41 0 0 1-1.1-.586A2.31 2.31 0 0 1 47 2698v-12a2.313 2.313 0 0 1 .458-1.414 1.41 1.41 0 0 1 1.1-.586z"/></g><g class="AN"><path d="M87 2697.875a2.56 2.56 0 0 1 .458-1.5 1.39 1.39 0 0 1 1.1-.622H97" class="w"/><path d="M88.563 2684H97v16h-8.437a1.41 1.41 0 0 1-1.1-.586A2.31 2.31 0 0 1 87 2698v-12a2.313 2.313 0 0 1 .458-1.414 1.41 1.41 0 0 1 1.1-.586z"/></g></g><g class="AJ"><use xlink:href="#Bz"/><use xlink:href="#Bl"/><use xlink:href="#Bl" y="4.6"/><use xlink:href="#Bl" y="9.194"/></g><g fill="#666"><use xlink:href="#Bz" x="40"/><use xlink:href="#Bl" x="40"/><use xlink:href="#Bl" x="40" y="4.6"/><use xlink:href="#Bl" x="40" y="9.194"/></g><g fill="#a5a5a5"><use xlink:href="#Bz" x="80"/><use xlink:href="#Bl" x="80"/><use xlink:href="#Bl" x="80" y="4.6"/><use xlink:href="#Bl" x="80" y="9.194"/><use xlink:href="#Bz" x="80"/><use xlink:href="#Bl" x="80"/><use xlink:href="#Bl" x="80" y="4.6"/><use xlink:href="#Bl" x="80" y="9.194"/></g><g class="y v"><path d="m5.5 2763.5 13 8.5-13 8.5z" class="AD"/><path stroke="#575757" d="m45.5 2763.5 13 8.5-13 8.5z"/><path d="m85.5 2763.5 13 8.5-13 8.5z" class="AN"/><g class="AD"><path d="M8.666 2810.333 6.999 2812l1.667 1.666m6.666-3.333 1.667 1.667-1.667 1.666" class="w"/><use xlink:href="#Bm"/><path d="m12.833 2810.058-1.667 3.883" class="w"/></g><g stroke="#575757"><path d="M48.666 2810.333 46.999 2812l1.667 1.666m6.666-3.333 1.667 1.667-1.667 1.666" class="w"/><use xlink:href="#Bm" x="40"/><path d="m52.833 2810.058-1.667 3.883" class="w"/></g><g class="AN"><path d="M88.666 2810.333 86.999 2812l1.667 1.666m6.666-3.333 1.667 1.667-1.667 1.666" class="w"/><use xlink:href="#Bm" x="80"/><path d="m92.833 2810.058-1.667 3.883" class="w"/></g><g stroke="#41454c"><path d="M18.4 2848H5.6a1.585 1.585 0 0 0-1.6 1.571v7.857A1.584 1.584 0 0 0 5.6 2859h12.8a1.585 1.585 0 0 0 1.6-1.571v-7.858a1.585 1.585 0 0 0-1.6-1.571z"/><use xlink:href="#Bn" class="w"/><path d="M58.4 2848H45.6a1.585 1.585 0 0 0-1.6 1.571v7.857a1.584 1.584 0 0 0 1.6 1.572h12.8a1.585 1.585 0 0 0 1.6-1.571v-7.858a1.585 1.585 0 0 0-1.6-1.571z"/><use xlink:href="#Bn" x="40" class="w"/></g><g class="AN"><path d="M98.4 2848H85.6a1.585 1.585 0 0 0-1.6 1.571v7.857a1.584 1.584 0 0 0 1.6 1.572h12.8a1.585 1.585 0 0 0 1.6-1.571v-7.858a1.585 1.585 0 0 0-1.6-1.571z"/><use xlink:href="#Bn" x="80" class="w"/></g></g></svg>