<svg width="38" height="532" fill="none" xmlns="http://www.w3.org/2000/svg"><g clip-path="url(#a)"><mask id="b" style="mask-type:luminance" maskUnits="userSpaceOnUse" x="0" y="0" width="38" height="532"><path d="M38 0H0v532h38V0Z" fill="#fff"/></mask><g mask="url(#b)"><mask id="c" style="mask-type:luminance" maskUnits="userSpaceOnUse" x="0" y="0" width="38" height="532"><path d="M38 0H0v532h38V0Z" fill="#fff"/></mask><g mask="url(#c)"><mask id="d" style="mask-type:luminance" maskUnits="userSpaceOnUse" x="0" y="0" width="38" height="570"><path d="M38 0H0v570h38V0Z" fill="#fff"/></mask><g mask="url(#d)"><mask id="e" style="mask-type:luminance" maskUnits="userSpaceOnUse" x="0" y="0" width="38" height="532"><path d="M0 0h38v532H0V0Z" fill="#fff"/></mask><g mask="url(#e)"><g opacity=".7"><path d="M38 171c0-10.493-8.507-19-19-19s-19 8.507-19 19 8.507 19 19 19 19-8.507 19-19Z" fill="#222221"/><path d="M33.567 163.621a3.798 3.798 0 0 0-2.688-2.7c-2.37-.64-11.877-.64-11.877-.64s-9.507 0-11.877.64a3.827 3.827 0 0 0-2.69 2.7 43.236 43.236 0 0 0 0 14.76 3.801 3.801 0 0 0 2.69 2.7c2.37.64 11.877.64 11.877.64s9.506 0 11.877-.64a3.824 3.824 0 0 0 2.688-2.71 43.236 43.236 0 0 0 0-14.76v.01Z" fill="#fff"/><path d="M15.883 175.531v-9.058l7.962 4.528-7.962 4.53Z" fill="#222221"/></g><g opacity=".7"><path d="M19 114.004c-10.493 0-19-8.507-19-19s8.507-19 19-19 19 8.507 19 19-8.507 19-19 19Z" fill="#222221"/><path d="M10.371 90.761h3.94v12.724h-3.94V90.761Zm1.95-1.663a2.346 2.346 0 1 0 .034-4.692 2.346 2.346 0 0 0-.034 4.692Zm8.28 7.707c0-1.788.823-2.854 2.4-2.854 1.448 0 2.144 1.023 2.144 2.854v6.68h3.92v-8.057c0-3.408-1.932-5.056-4.63-5.056a4.435 4.435 0 0 0-3.834 2.1v-1.714h-3.773v12.723h3.773v-6.676Z" fill="#fff"/></g><g opacity=".7"><path d="M19 0a19 19 0 1 1 0 38 19 19 0 0 1 0-38Z" fill="#222221"/><path d="M16.1 30.472h4.631V18.9h3.233l.344-3.874h-3.577v-2.203c0-.914.184-1.275 1.07-1.275h2.507v-4.02H21.1c-3.447 0-5 1.514-5 4.412v3.09h-2.4v3.923h2.4v11.52Z" fill="#fff"/></g><g opacity=".7"><path d="M19 76.004c-10.493 0-19-8.507-19-19s8.507-19 19-19 19 8.507 19 19-8.507 19-19 19Z" fill="#222221"/><path d="m19 48.444 4.217.06c.662.009 1.317.13 1.937.36a3.449 3.449 0 0 1 1.98 1.98c.23.62.352 1.276.36 1.938l.06 4.217-.06 4.215a5.779 5.779 0 0 1-.36 1.939 3.45 3.45 0 0 1-1.98 1.98c-.62.229-1.275.35-1.937.36l-4.217.06c-2.787 0-3.116-.01-4.216-.06a5.771 5.771 0 0 1-1.94-.36 3.476 3.476 0 0 1-1.98-1.98 5.825 5.825 0 0 1-.36-1.938l-.06-4.217.06-4.216a5.761 5.761 0 0 1 .36-1.938 3.46 3.46 0 0 1 1.98-1.982 5.789 5.789 0 0 1 1.937-.36l4.22-.06m0-1.88-4.3.064a7.669 7.669 0 0 0-2.534.485 5.33 5.33 0 0 0-3.05 3.052 7.64 7.64 0 0 0-.488 2.536l-.063 4.3.063 4.3a7.64 7.64 0 0 0 .485 2.532 5.365 5.365 0 0 0 3.05 3.052 7.7 7.7 0 0 0 2.533.486l4.3.061 4.3-.062a7.692 7.692 0 0 0 2.533-.484 5.341 5.341 0 0 0 3.052-3.053 7.59 7.59 0 0 0 .485-2.533l.063-4.3-.063-4.3a7.616 7.616 0 0 0-.485-2.532 5.34 5.34 0 0 0-3.052-3.052 7.588 7.588 0 0 0-2.533-.485L19 46.563Zm0 5.08a5.363 5.363 0 1 0-.004 10.726A5.363 5.363 0 0 0 19 51.642Zm0 8.836a3.484 3.484 0 1 1-.007-6.968A3.484 3.484 0 0 1 19 60.478Zm6.821-9.05a1.255 1.255 0 1 1-2.51.004 1.255 1.255 0 0 1 2.51-.004Z" fill="#fff"/></g><path d="M38 361.004c0-10.493-8.507-19-19-19s-19 8.507-19 19 8.507 19 19 19 19-8.507 19-19Z" fill="red"/><path d="M33.567 353.621a3.798 3.798 0 0 0-2.688-2.7c-2.37-.64-11.877-.64-11.877-.64s-9.507 0-11.877.64a3.833 3.833 0 0 0-2.69 2.7 43.236 43.236 0 0 0 0 14.76 3.806 3.806 0 0 0 2.69 2.7c2.37.64 11.877.64 11.877.64s9.506 0 11.877-.64a3.825 3.825 0 0 0 2.688-2.71 43.236 43.236 0 0 0 0-14.76v.01Z" fill="#fff"/><path d="M15.883 365.531v-9.058l7.962 4.528-7.962 4.53Z" fill="red"/><path d="M19 304.004c-10.493 0-19-8.507-19-19s8.507-19 19-19 19 8.507 19 19-8.507 19-19 19Z" fill="#0077B5"/><path d="M10.368 280.761h3.94v12.724h-3.94v-12.724Zm1.95-1.663A2.345 2.345 0 0 0 14 275.1a2.346 2.346 0 1 0-1.682 3.998Zm8.28 7.707c0-1.788.823-2.854 2.4-2.854 1.448 0 2.144 1.023 2.144 2.854v6.68h3.92v-8.056c0-3.408-1.932-5.056-4.63-5.056a4.435 4.435 0 0 0-3.834 2.1v-1.713h-3.773v12.723h3.773v-6.678Z" fill="#fff"/><path d="M19 190c10.493 0 19 8.507 19 19s-8.507 19-19 19-19-8.507-19-19 8.507-19 19-19Z" fill="#3B5998"/><path d="M16.1 220.472h4.631v-11.573h3.233l.344-3.874h-3.577v-2.203c0-.914.184-1.275 1.07-1.275h2.507v-4.02H21.1c-3.447 0-5 1.514-5 4.412v3.09h-2.4v3.923h2.4v11.52Z" fill="#fff"/><path d="M19 266.004c-10.493 0-19-8.507-19-19s8.507-19 19-19 19 8.507 19 19-8.507 19-19 19Z" fill="#E1306C"/><path d="m19.434 238.445 4.217.06c.662.008 1.317.13 1.937.36a3.446 3.446 0 0 1 1.98 1.979c.23.62.352 1.276.36 1.938l.06 4.217-.06 4.216a5.782 5.782 0 0 1-.36 1.938 3.45 3.45 0 0 1-1.98 1.98 5.825 5.825 0 0 1-1.937.36l-4.217.06c-2.787 0-3.116-.01-4.216-.06a5.765 5.765 0 0 1-1.94-.36 3.475 3.475 0 0 1-1.98-1.979 5.835 5.835 0 0 1-.36-1.939l-.06-4.216.06-4.217a5.761 5.761 0 0 1 .359-1.938 3.453 3.453 0 0 1 1.98-1.981 5.779 5.779 0 0 1 1.938-.36l4.216-.06m0-1.881-4.3.064a7.668 7.668 0 0 0-2.533.485 5.322 5.322 0 0 0-3.05 3.052 7.64 7.64 0 0 0-.485 2.533L9 246.999l.063 4.3c.017.866.181 1.721.485 2.532a5.38 5.38 0 0 0 3.05 3.053 7.694 7.694 0 0 0 2.533.484l4.3.063 4.3-.063a7.694 7.694 0 0 0 2.533-.484 5.329 5.329 0 0 0 3.052-3.053 7.586 7.586 0 0 0 .485-2.532l.063-4.3-.063-4.3a7.642 7.642 0 0 0-.485-2.533 5.336 5.336 0 0 0-3.052-3.052 7.59 7.59 0 0 0-2.533-.485l-4.3-.063m0 5.078a5.362 5.362 0 1 0-.01 10.729 5.362 5.362 0 0 0 .013-10.731m0 8.836a3.485 3.485 0 1 1-.004-6.97 3.485 3.485 0 0 1 .004 6.97Zm6.822-9.05a1.255 1.255 0 1 1-2.51.004 1.255 1.255 0 0 1 2.51-.004Z" fill="#fff"/><path d="M38 437c0-10.493-8.507-19-19-19s-19 8.507-19 19 8.507 19 19 19 19-8.507 19-19Z" fill="#A3C939"/><path d="M12.16 445.372h1.6v1.6a1.825 1.825 0 0 0 3.648 0v-1.6h3.19v1.6a1.825 1.825 0 0 0 3.648 0v-1.6h1.6v-10.028H12.16v10.028ZM26.12 426.124a.902.902 0 0 0-.912-.001.908.908 0 0 0-.333.334l-1.367 2.377a6.839 6.839 0 0 0-9 0l-1.388-2.378a.907.907 0 0 0-1.245-.333.913.913 0 0 0-.335 1.244l1.693 2.931a6.771 6.771 0 0 0-1.078 3.678h13.674a6.772 6.772 0 0 0-1.078-3.678l1.693-2.931a.911.911 0 0 0-.335-1.244l.01.001Zm-9.74 6.03a.685.685 0 1 1 .684-.683.684.684 0 0 1-.684.684v-.001Zm5.243 0a.685.685 0 1 1 .683-.683.684.684 0 0 1-.684.684v-.001ZM29.027 435.344c-.755 0-1.367.612-1.367 1.367v4.558a1.37 1.37 0 0 0 1.367 1.367 1.373 1.373 0 0 0 1.368-1.367v-4.558c0-.755-.612-1.367-1.367-1.367ZM8.972 435.344c-.755 0-1.367.612-1.367 1.367v4.558a1.37 1.37 0 0 0 1.368 1.367 1.373 1.373 0 0 0 1.368-1.367v-4.558c0-.755-.612-1.367-1.367-1.367h-.002Z" fill="#fff"/><g opacity=".7"><path d="M38 399c0-10.493-8.507-19-19-19s-19 8.507-19 19 8.507 19 19 19 19-8.507 19-19Z" fill="#222221"/><path d="M12.163 407.373h1.6v1.6a1.825 1.825 0 0 0 3.648 0v-1.6h3.19v1.6a1.825 1.825 0 0 0 3.648 0v-1.6h1.6v-10.028H12.163v10.028Zm13.96-19.249a.902.902 0 0 0-.912-.001.907.907 0 0 0-.334.334l-1.367 2.377a6.839 6.839 0 0 0-9 0l-1.388-2.378a.907.907 0 0 0-1.245-.333.913.913 0 0 0-.335 1.244l1.693 2.931a6.772 6.772 0 0 0-1.078 3.678h13.674a6.771 6.771 0 0 0-1.078-3.678l1.693-2.931a.913.913 0 0 0-.335-1.244l.011.001Zm-9.74 6.03a.685.685 0 1 1 .684-.683.684.684 0 0 1-.684.684v-.001Zm5.242 0a.685.685 0 1 1 .261-1.315.685.685 0 0 1-.262 1.316l.002-.001Zm7.404 3.191c-.756 0-1.368.612-1.368 1.367v4.558a1.37 1.37 0 0 0 1.367 1.367 1.373 1.373 0 0 0 1.369-1.367v-4.558c0-.755-.613-1.367-1.368-1.367Zm-20.057 0c-.755 0-1.367.612-1.367 1.367v4.558a1.368 1.368 0 0 0 2.736 0v-4.558c0-.755-.612-1.367-1.367-1.367h-.002Z" fill="#fff"/></g><path d="M38 513c0-10.493-8.507-19-19-19s-19 8.507-19 19 8.507 19 19 19 19-8.507 19-19Z" fill="#2196F3"/><path opacity=".05" d="M8.3 519.914a2.287 2.287 0 1 1 0-4.572h3.5l4.48-7.645-1.315-2.236a2.303 2.303 0 0 1 .803-3.181 2.301 2.301 0 0 1 3.166.857l.006.011.006-.01a2.302 2.302 0 0 1 3.148-.822 2.303 2.303 0 0 1 .821 3.148l-5.789 9.879h3.062l.27.271c.214.218.406.456.573.712l.181.3c.444.801.55 1.747.294 2.626l-.194.657H8.3v.005Z" fill="#000"/><path opacity=".07" d="M8.299 519.451a1.826 1.826 0 1 1 0-3.651h3.76l4.75-8.105-1.45-2.466a1.843 1.843 0 0 1 .12-2.041 1.833 1.833 0 0 1 1.933-.669 1.835 1.835 0 0 1 1.123.85l.4.689.4-.688a1.848 1.848 0 0 1 1.605-.94 1.842 1.842 0 0 1 1.569 2.801l-6.186 10.571h3.673l.134.135c.193.196.365.411.515.642l.17.285a2.961 2.961 0 0 1 .248 2.26l-.1.328-12.664-.001Z" fill="#000"/><path d="M20.266 516.834a3.71 3.71 0 0 0-.458-.571h-4.286l6.6-11.264a1.38 1.38 0 1 0-2.38-1.4l-.8 1.365-.8-1.366a1.386 1.386 0 0 0-1.9-.514 1.378 1.378 0 0 0-.481 1.909l1.583 2.7-5.022 8.57h-4.02a1.368 1.368 0 0 0-1.214 2.059c.252.428.717.685 1.214.672h12.32a2.48 2.48 0 0 0-.2-1.894l-.156-.266Z" fill="#fff"/><path opacity=".05" d="M10.323 524.001a2.302 2.302 0 0 1-2.3-2.313 2.3 2.3 0 0 1 .317-1.152l.656-1.121.4-.081a4.87 4.87 0 0 1 .948-.1h.11a3.489 3.489 0 0 1 2.545 1.2l.437.5-1.13 1.932a2.31 2.31 0 0 1-1.983 1.135Z" fill="#000"/><path opacity=".07" d="M10.324 523.539a1.845 1.845 0 0 1-1.597-.926 1.838 1.838 0 0 1 .01-1.846l.553-.942.2-.04c.282-.059.57-.089.858-.09h.1a3.015 3.015 0 0 1 2.2 1.039l.219.249-.963 1.646a1.848 1.848 0 0 1-1.58.91Z" fill="#000"/><path d="M10.442 520.153a3.803 3.803 0 0 0-.858.08l-.448.765a1.381 1.381 0 0 0 2.38 1.4l.8-1.359a2.556 2.556 0 0 0-1.874-.886Z" fill="#fff"/><path opacity=".05" d="M27.427 523.999a2.317 2.317 0 0 1-1.986-1.137l-5.546-9.464-.016-.048a4.727 4.727 0 0 1 .2-3.49l1.536-2.63 4.343 7.412h3.745a2.287 2.287 0 1 1 0 4.573h-1.069l.775 1.321a2.298 2.298 0 0 1-1.982 3.463Z" fill="#000"/><path opacity=".07" d="M27.427 523.539c-.654 0-1.26-.345-1.592-.909l-5.52-9.42-.017-.048a4.232 4.232 0 0 1 .191-3.106l1.12-1.915 4.082 6.956h4.01a1.826 1.826 0 1 1 0 3.651h-1.866l1.181 2.015a1.839 1.839 0 0 1-1.585 2.771l-.004.005Z" fill="#000"/><path d="M29.698 515.562h-4.272l-3.816-6.511-.7 1.2a3.79 3.79 0 0 0-.17 2.771l5.5 9.377a1.378 1.378 0 1 0 2.38-1.4l-1.587-2.708h2.672a1.368 1.368 0 0 0 1.214-2.059 1.367 1.367 0 0 0-1.214-.672l-.007.002Z" fill="#fff"/><g opacity=".7"><path d="M19 456c10.493 0 19 8.507 19 19s-8.507 19-19 19-19-8.507-19-19 8.507-19 19-19Z" fill="#222221"/><path opacity=".05" d="M8.3 481.914a2.287 2.287 0 1 1 0-4.572h3.5l4.48-7.645-1.315-2.236a2.303 2.303 0 0 1 .803-3.181 2.301 2.301 0 0 1 3.166.857l.006.011.006-.01a2.302 2.302 0 0 1 3.148-.822 2.303 2.303 0 0 1 .821 3.148l-5.789 9.879h3.062l.27.271c.214.218.406.456.573.712l.181.3c.444.801.55 1.747.294 2.626l-.194.657H8.3v.005Z" fill="#000"/><path opacity=".07" d="M8.299 481.451a1.826 1.826 0 1 1 0-3.651h3.76l4.75-8.105-1.45-2.466a1.843 1.843 0 0 1 .12-2.041 1.833 1.833 0 0 1 1.933-.669 1.835 1.835 0 0 1 1.123.85l.4.689.4-.688a1.848 1.848 0 0 1 1.605-.94 1.842 1.842 0 0 1 1.569 2.801l-6.186 10.571h3.673l.134.135c.193.196.365.411.515.642l.17.285a2.961 2.961 0 0 1 .248 2.26l-.1.328-12.664-.001Z" fill="#000"/><path d="M20.266 478.834a3.71 3.71 0 0 0-.458-.571h-4.286l6.6-11.264a1.38 1.38 0 0 0-2.38-1.4l-.8 1.365-.8-1.366a1.386 1.386 0 0 0-1.9-.514 1.378 1.378 0 0 0-.481 1.909l1.583 2.7-5.022 8.57h-4.02a1.368 1.368 0 0 0-1.214 2.059c.252.428.717.685 1.214.672h12.32a2.48 2.48 0 0 0-.2-1.894l-.156-.266Z" fill="#fff"/><path opacity=".05" d="M10.323 486.001a2.302 2.302 0 0 1-2.3-2.313 2.3 2.3 0 0 1 .317-1.152l.656-1.121.4-.081a4.87 4.87 0 0 1 .948-.1h.11a3.489 3.489 0 0 1 2.545 1.2l.437.5-1.13 1.932a2.31 2.31 0 0 1-1.983 1.135Z" fill="#000"/><path opacity=".07" d="M10.324 485.539a1.845 1.845 0 0 1-1.597-.926 1.842 1.842 0 0 1 .01-1.846l.553-.942.2-.04c.282-.059.57-.089.858-.09h.1a3.015 3.015 0 0 1 2.2 1.039l.219.249-.963 1.646a1.848 1.848 0 0 1-1.58.91Z" fill="#000"/><path d="M10.442 482.153a3.803 3.803 0 0 0-.858.08l-.448.765a1.381 1.381 0 0 0 2.38 1.4l.8-1.359a2.556 2.556 0 0 0-1.874-.886Z" fill="#fff"/><path opacity=".05" d="M27.427 485.999a2.317 2.317 0 0 1-1.986-1.137l-5.546-9.464-.016-.048a4.727 4.727 0 0 1 .2-3.49l1.536-2.63 4.343 7.412h3.745a2.287 2.287 0 1 1 0 4.572h-1.069l.775 1.322a2.298 2.298 0 0 1-1.982 3.463Z" fill="#000"/><path opacity=".07" d="M27.427 485.539c-.654 0-1.26-.345-1.592-.909l-5.52-9.42-.017-.048a4.232 4.232 0 0 1 .191-3.106l1.12-1.915 4.082 6.956h4.01a1.826 1.826 0 1 1 0 3.651h-1.866l1.181 2.015a1.839 1.839 0 0 1-1.585 2.771l-.004.005Z" fill="#000"/><path d="M29.698 477.562h-4.272l-3.816-6.511-.7 1.2a3.79 3.79 0 0 0-.17 2.771l5.5 9.377a1.378 1.378 0 1 0 2.38-1.4l-1.587-2.708h2.672a1.368 1.368 0 0 0 1.214-2.059 1.367 1.367 0 0 0-1.214-.672l-.007.002Z" fill="#fff"/></g></g><mask id="f" style="mask-type:luminance" maskUnits="userSpaceOnUse" x="0" y="304" width="38" height="38"><path d="M38 304H0v38h38v-38Z" fill="#fff"/></mask><g mask="url(#f)"><path d="M19.257 342.002c10.352 0 18.745-8.392 18.745-18.745 0-10.353-8.393-18.745-18.745-18.745-10.353 0-18.745 8.392-18.745 18.745 0 10.353 8.392 18.745 18.745 18.745Z" fill="#000"/><path d="m7.709 312.397 8.96 11.98-9.017 9.74h2.026l7.899-8.529 6.378 8.529h6.906l-9.464-12.655 8.393-9.067h-2.025l-7.27 7.854-5.873-7.854-6.913.002Zm2.986 1.495h3.171l14.01 18.73h-3.172l-14.01-18.73Z" fill="#fff"/></g></g><g opacity=".7"><path d="M19 152c10.493 0 19-8.507 19-19s-8.507-19-19-19-19 8.507-19 19 8.507 19 19 19Z" fill="#222221"/><path d="m7.417 122.105 8.99 12.02-9.048 9.771h2.037l7.92-8.556 6.4 8.556h6.928l-9.497-12.695 8.417-9.096h-2.037l-7.294 7.879-5.894-7.879H7.417Zm2.995 1.498h3.182l14.057 18.796h-3.183l-14.056-18.796Z" fill="#fff"/></g></g></g></g><defs><clipPath id="a"><path fill="#fff" d="M0 0h38v532H0z"/></clipPath></defs></svg>